<svg width="163" height="54" viewBox="0 0 163 54" fill="none" xmlns="http://www.w3.org/2000/svg">
<g clip-path="url(#clip0_293_614)">
<path d="M149.165 0.000175199H13.2073C12.7118 0.000175199 12.2221 0.000175199 11.7278 0.00287057C11.3141 0.00556593 10.9036 0.013396 10.4859 0.0199861C9.57842 0.0306353 8.67307 0.110249 7.77771 0.258135C6.88361 0.409241 6.01752 0.694119 5.20873 1.10313C4.40093 1.51561 3.66283 2.05158 3.02118 2.69159C2.37617 3.32981 1.8385 4.06751 1.42886 4.87631C1.01808 5.6835 0.733245 6.54849 0.584191 7.44138C0.43372 8.33315 0.35275 9.2352 0.342008 10.1394C0.329466 10.5526 0.328142 10.9672 0.321533 11.3805V42.5312C0.328142 42.9496 0.329466 43.355 0.342008 43.7736C0.352753 44.6778 0.433723 45.5798 0.584191 46.4715C0.732833 47.365 1.01768 48.2304 1.42886 49.0379C1.83832 49.8441 2.37606 50.5788 3.02118 51.2135C3.66039 51.8564 4.39898 52.3927 5.20873 52.802C6.01752 53.2121 6.88351 53.4987 7.77771 53.6521C8.67322 53.7988 9.57848 53.8785 10.4859 53.8904C10.9036 53.8996 11.3141 53.9048 11.7278 53.9048C12.2221 53.9075 12.7118 53.9075 13.2073 53.9075H149.165C149.651 53.9075 150.144 53.9075 150.63 53.9048C151.042 53.9048 151.464 53.8996 151.876 53.8904C152.782 53.8791 153.685 53.7995 154.579 53.6521C155.476 53.4976 156.345 53.2111 157.158 52.802C157.967 52.3925 158.705 51.8561 159.343 51.2135C159.987 50.5763 160.526 49.8422 160.94 49.0379C161.348 48.2298 161.63 47.3644 161.777 46.4715C161.928 45.5797 162.011 44.6779 162.028 43.7736C162.033 43.355 162.033 42.9496 162.033 42.5312C162.044 42.0416 162.044 41.5546 162.044 41.0571V12.8519C162.044 12.3583 162.044 11.8687 162.033 11.3805C162.033 10.9672 162.033 10.5526 162.028 10.1394C162.011 9.23507 161.928 8.33322 161.777 7.44133C161.63 6.54895 161.348 5.68403 160.94 4.87626C160.106 3.25509 158.783 1.93548 157.158 1.10301C156.345 0.694997 155.476 0.410195 154.579 0.258014C153.685 0.109476 152.782 0.0298347 151.876 0.0197975C151.464 0.0132208 151.042 0.00532335 150.63 0.00269537C150.144 0 149.651 0 149.165 0V0.000175199Z" fill="black"/>
<path d="M11.7345 52.7286C11.3228 52.7286 10.9209 52.7233 10.5124 52.7142C9.6661 52.7032 8.82176 52.6297 7.98633 52.4944C7.20733 52.3606 6.45269 52.1117 5.7473 51.756C5.04838 51.4032 4.41091 50.9406 3.8593 50.3859C3.29971 49.8378 2.83383 49.202 2.48012 48.5039C2.1225 47.8012 1.87501 47.048 1.74627 46.2705C1.60724 45.4351 1.53201 44.5903 1.52125 43.7436C1.51268 43.4594 1.50146 42.513 1.50146 42.513V11.3808C1.50146 11.3808 1.51341 10.449 1.52132 10.1752C1.53162 9.32978 1.60641 8.48636 1.74503 7.65225C1.87401 6.87264 2.12169 6.11726 2.47949 5.41226C2.83191 4.71459 3.29521 4.07837 3.85142 3.52827C4.40701 2.97294 5.04653 2.50797 5.74664 2.1503C6.45041 1.7957 7.20362 1.54859 7.98105 1.41724C8.81922 1.28054 9.66649 1.20664 10.5157 1.19614L11.7352 1.17969H150.623L151.857 1.1968C152.699 1.20677 153.539 1.28002 154.369 1.41592C155.154 1.54892 155.915 1.79776 156.627 2.15425C158.03 2.87505 159.171 4.01543 159.891 5.41555C160.243 6.11568 160.487 6.8649 160.614 7.63777C160.755 8.47873 160.833 9.32878 160.849 10.1811C160.853 10.5628 160.853 10.9728 160.853 11.3808C160.864 11.8861 160.864 12.3672 160.864 12.8521V41.0574C160.864 41.547 160.864 42.0247 160.853 42.5064C160.853 42.9447 160.853 43.3461 160.848 43.7593C160.832 44.5965 160.755 45.4314 160.617 46.2573C160.491 47.0404 160.245 47.7994 159.887 48.5079C159.531 49.1985 159.068 49.8287 158.515 50.3754C157.962 50.933 157.324 51.3983 156.623 51.7534C155.913 52.1119 155.154 52.3617 154.369 52.4944C153.534 52.6304 152.689 52.7039 151.843 52.7142C151.447 52.7233 151.033 52.7286 150.63 52.7286L149.165 52.7313L11.7345 52.7286Z" fill="white"/>
<path d="M34.1038 26.8044C34.1189 25.6347 34.4305 24.4878 35.0095 23.4704C35.5886 22.453 36.4163 21.5982 37.4156 20.9855C36.7808 20.0814 35.9432 19.3373 34.9696 18.8124C33.9959 18.2875 32.9129 17.9962 31.8065 17.9617C29.4465 17.7146 27.1587 19.3699 25.956 19.3699C24.7302 19.3699 22.8786 17.9862 20.8847 18.0271C19.595 18.0686 18.3381 18.4426 17.2365 19.1126C16.1348 19.7826 15.226 20.7257 14.5985 21.8501C11.8806 26.5427 13.9079 33.4393 16.5115 37.2325C17.8142 39.0899 19.3366 41.1647 21.3287 41.0911C23.278 41.0105 24.0061 39.8516 26.3591 39.8516C28.6903 39.8516 29.3733 41.0911 31.4058 41.0444C33.4976 41.0105 34.8155 39.1787 36.0725 37.3037C37.0084 35.9802 37.7286 34.5175 38.2064 32.9697C36.9912 32.4571 35.9541 31.5992 35.2245 30.5028C34.495 29.4065 34.1052 28.1202 34.1038 26.8044Z" fill="black"/>
<path d="M30.2648 15.4671C31.4053 14.1018 31.9672 12.347 31.8311 10.5752C30.0887 10.7577 28.4792 11.5881 27.3233 12.9011C26.7581 13.5425 26.3252 14.2886 26.0494 15.097C25.7736 15.9053 25.6603 16.7599 25.7159 17.6119C26.5874 17.6208 27.4496 17.4325 28.2376 17.0609C29.0255 16.6894 29.7187 16.1445 30.2648 15.4671V15.4671Z" fill="black"/>
<path d="M57.4909 36.5754H51.0939L49.5577 41.0988H46.8481L52.9073 24.3633H55.7224L61.7816 41.0988H59.0259L57.4909 36.5754ZM51.7565 34.4881H56.8272L54.3275 27.1469H54.2575L51.7565 34.4881Z" fill="black"/>
<path d="M74.8676 34.9989C74.8676 38.7906 72.8325 41.2267 69.7613 41.2267C68.9833 41.2673 68.2096 41.0886 67.5287 40.711C66.8479 40.3335 66.2874 39.7724 65.9115 39.092H65.8534V45.1355H63.3418V28.8975H65.7729V30.9269H65.819C66.2123 30.2498 66.7822 29.6916 67.4683 29.3117C68.1543 28.9319 68.9308 28.7446 69.7151 28.7698C72.8206 28.7698 74.8676 31.2178 74.8676 34.9989ZM72.2861 34.9989C72.2861 32.5286 71.0059 30.9045 69.0526 30.9045C67.1336 30.9045 65.8428 32.5628 65.8428 34.9989C65.8428 37.4574 67.1336 39.1038 69.0526 39.1038C71.0059 39.1038 72.286 37.4916 72.286 34.9989H72.2861Z" fill="black"/>
<path d="M88.3353 34.9989C88.3353 38.7906 86.2995 41.2267 83.2283 41.2267C82.4504 41.2673 81.6767 41.0886 80.9958 40.711C80.3149 40.3335 79.7544 39.7724 79.3785 39.092H79.3204V45.1355H76.8088V28.8975H79.2399V30.9269H79.2861C79.6793 30.2498 80.2493 29.6916 80.9353 29.3117C81.6213 28.9319 82.3978 28.7446 83.1821 28.7698C86.2876 28.7698 88.3353 31.2178 88.3353 34.9989ZM85.7531 34.9989C85.7531 32.5286 84.4729 30.9045 82.5196 30.9045C80.6006 30.9045 79.3099 32.5628 79.3099 34.9989C79.3099 37.4574 80.6006 39.1038 82.5196 39.1038C84.4729 39.1038 85.7531 37.4916 85.7531 34.9989V34.9989Z" fill="black"/>
<path d="M97.2346 36.4361C97.4207 38.0957 99.0374 39.1854 101.247 39.1854C103.364 39.1854 104.887 38.0957 104.887 36.5992C104.887 35.3003 103.968 34.5225 101.793 33.9894L99.6181 33.4669C96.5364 32.7247 95.1058 31.2875 95.1058 28.9554C95.1058 26.0678 97.6292 24.0845 101.211 24.0845C104.759 24.0845 107.19 26.0678 107.272 28.9554H104.736C104.584 27.2852 103.2 26.2771 101.177 26.2771C99.1536 26.2771 97.7691 27.2971 97.7691 28.7816C97.7691 29.9648 98.6534 30.661 100.816 31.194L102.666 31.6467C106.109 32.4588 107.538 33.8381 107.538 36.286C107.538 39.417 105.038 41.3779 101.061 41.3779C97.3388 41.3779 94.8259 39.463 94.6636 36.436L97.2346 36.4361Z" fill="black"/>
<path d="M112.961 26.0098V28.8973H115.288V30.8806H112.961V37.6072C112.961 38.6522 113.427 39.1392 114.45 39.1392C114.726 39.1343 115.002 39.115 115.276 39.0812V41.0527C114.816 41.1384 114.349 41.1772 113.881 41.1685C111.404 41.1685 110.438 40.2407 110.438 37.8743V30.8806H108.658V28.8973H110.437V26.0098H112.961Z" fill="black"/>
<path d="M116.634 34.999C116.634 31.16 118.902 28.7476 122.437 28.7476C125.985 28.7476 128.242 31.1599 128.242 34.999C128.242 38.8486 125.997 41.2505 122.437 41.2505C118.879 41.2505 116.634 38.8486 116.634 34.999ZM125.683 34.999C125.683 32.3655 124.473 30.8112 122.437 30.8112C120.402 30.8112 119.192 32.3774 119.192 34.999C119.192 37.6431 120.402 39.1855 122.437 39.1855C124.473 39.1855 125.683 37.6431 125.683 34.999H125.683Z" fill="black"/>
<path d="M130.313 28.8974H132.708V30.9742H132.766C132.928 30.3255 133.309 29.7523 133.845 29.3509C134.381 28.9494 135.039 28.7442 135.709 28.7697C135.999 28.7687 136.287 28.8 136.57 28.8631V31.2058C136.204 31.0945 135.823 31.0433 135.441 31.0545C135.076 31.0397 134.713 31.1038 134.375 31.2425C134.037 31.3812 133.734 31.591 133.485 31.8577C133.236 32.1244 133.049 32.4416 132.935 32.7875C132.82 33.1334 132.783 33.4999 132.824 33.8617V41.0989H130.312L130.313 28.8974Z" fill="black"/>
<path d="M148.149 37.5154C147.812 39.7304 145.648 41.2505 142.881 41.2505C139.321 41.2505 137.112 38.8723 137.112 35.0569C137.112 31.2297 139.333 28.7476 142.775 28.7476C146.161 28.7476 148.289 31.0665 148.289 34.7661V35.6242H139.647V35.7755C139.607 36.2246 139.664 36.6769 139.813 37.1026C139.962 37.5282 140.2 37.9174 140.511 38.2443C140.822 38.5712 141.2 38.8283 141.618 38.9985C142.037 39.1687 142.487 39.2482 142.939 39.2316C143.532 39.287 144.128 39.15 144.637 38.8407C145.146 38.5315 145.542 38.0667 145.765 37.5154L148.149 37.5154ZM139.659 33.8738H145.776C145.799 33.47 145.738 33.0659 145.596 32.687C145.455 32.308 145.236 31.9623 144.954 31.6715C144.673 31.3807 144.334 31.1511 143.959 30.9972C143.584 30.8433 143.181 30.7683 142.775 30.777C142.366 30.7745 141.961 30.8529 141.582 31.0075C141.204 31.1622 140.86 31.39 140.57 31.6779C140.281 31.9658 140.051 32.3081 139.895 32.685C139.738 33.0619 139.658 33.4659 139.659 33.8738V33.8738Z" fill="black"/>
<path d="M51.4423 11.7669C51.9689 11.7293 52.4972 11.8086 52.9893 11.9992C53.4814 12.1898 53.9249 12.4869 54.2879 12.8692C54.6509 13.2514 54.9243 13.7092 55.0884 14.2096C55.2524 14.7099 55.3031 15.2404 55.2367 15.7626C55.2367 18.3316 53.8443 19.8083 51.4423 19.8083H48.5295V11.7669H51.4423ZM49.782 18.6711H51.3024C51.6787 18.6935 52.0552 18.632 52.4046 18.491C52.754 18.3501 53.0675 18.1331 53.3222 17.8561C53.577 17.5791 53.7666 17.2489 53.8772 16.8896C53.9878 16.5302 54.0167 16.1508 53.9618 15.779C54.0128 15.4086 53.9809 15.0316 53.8686 14.6749C53.7563 14.3182 53.5662 13.9907 53.312 13.7159C53.0579 13.441 52.7459 13.2257 52.3985 13.0852C52.051 12.9447 51.6767 12.8826 51.3024 12.9033H49.782V18.6711Z" fill="black"/>
<path d="M56.6518 16.7713C56.6135 16.3725 56.6593 15.9701 56.7861 15.5899C56.9129 15.2098 57.118 14.8603 57.3882 14.5638C57.6584 14.2674 57.9878 14.0305 58.3552 13.8684C58.7226 13.7063 59.1199 13.6226 59.5217 13.6226C59.9234 13.6226 60.3207 13.7063 60.6881 13.8684C61.0555 14.0305 61.3849 14.2674 61.6551 14.5638C61.9253 14.8603 62.1304 15.2098 62.2572 15.5899C62.3841 15.9701 62.4298 16.3725 62.3915 16.7713C62.4305 17.1705 62.3853 17.5734 62.2588 17.9542C62.1323 18.3349 61.9274 18.6851 61.6571 18.9821C61.3868 19.2792 61.0572 19.5165 60.6894 19.679C60.3217 19.8414 59.9239 19.9253 59.5217 19.9253C59.1194 19.9253 58.7216 19.8414 58.3539 19.679C57.9861 19.5165 57.6565 19.2792 57.3862 18.9821C57.1159 18.6851 56.911 18.3349 56.7845 17.9542C56.658 17.5734 56.6128 17.1705 56.6518 16.7713V16.7713ZM61.1562 16.7713C61.1562 15.4558 60.5636 14.6866 59.5236 14.6866C58.4797 14.6866 57.8924 15.4558 57.8924 16.7713C57.8924 18.0972 58.4797 18.8606 59.5236 18.8606C60.5636 18.8606 61.1562 18.092 61.1562 16.7713H61.1562Z" fill="black"/>
<path d="M70.0211 19.8088H68.7753L67.5175 15.3393H67.4225L66.17 19.8088H64.936L63.2585 13.7402H64.4767L65.5669 18.3709H65.6566L66.9078 13.7402H68.06L69.3111 18.3709H69.4061L70.491 13.7402H71.692L70.0211 19.8088Z" fill="black"/>
<path d="M73.1028 13.7398H74.2589V14.7039H74.3487C74.5009 14.3576 74.7577 14.0674 75.0832 13.8735C75.4088 13.6797 75.7868 13.592 76.1647 13.6227C76.4608 13.6005 76.7581 13.645 77.0346 13.7529C77.3111 13.8609 77.5598 14.0295 77.762 14.2462C77.9643 14.463 78.1151 14.7224 78.2032 15.0052C78.2914 15.2879 78.3145 15.5869 78.2711 15.8798V19.8083H77.0701V16.1805C77.0701 15.2053 76.6451 14.7203 75.7569 14.7203C75.5558 14.711 75.3552 14.7451 75.1686 14.8203C74.982 14.8956 74.8139 15.0102 74.6759 15.1562C74.5379 15.3023 74.4332 15.4764 74.369 15.6666C74.3047 15.8568 74.2825 16.0586 74.3038 16.2582V19.8083H73.1028L73.1028 13.7398Z" fill="black"/>
<path d="M80.1848 11.3706H81.3858V19.8081H80.1848V11.3706Z" fill="black"/>
<path d="M83.0553 16.7714C83.0171 16.3725 83.0628 15.9701 83.1897 15.59C83.3165 15.2098 83.5217 14.8603 83.7919 14.5638C84.0622 14.2674 84.3916 14.0305 84.759 13.8684C85.1264 13.7063 85.5237 13.6226 85.9255 13.6226C86.3273 13.6226 86.7246 13.7063 87.092 13.8684C87.4595 14.0305 87.7889 14.2674 88.0591 14.5638C88.3293 14.8603 88.5345 15.2098 88.6613 15.59C88.7882 15.9701 88.8339 16.3725 88.7957 16.7714C88.8347 17.1706 88.7894 17.5735 88.6629 17.9543C88.5364 18.335 88.3313 18.6852 88.061 18.9822C87.7907 19.2793 87.4611 19.5166 87.0933 19.6791C86.7255 19.8415 86.3277 19.9254 85.9255 19.9254C85.5233 19.9254 85.1255 19.8415 84.7577 19.6791C84.3899 19.5166 84.0603 19.2793 83.79 18.9822C83.5197 18.6852 83.3147 18.335 83.1881 17.9543C83.0616 17.5735 83.0164 17.1706 83.0553 16.7714V16.7714ZM87.5597 16.7714C87.5597 15.4559 86.9671 14.6867 85.9272 14.6867C84.8832 14.6867 84.2959 15.4559 84.2959 16.7714C84.2959 18.0974 84.8832 18.8607 85.9272 18.8607C86.9671 18.8607 87.5597 18.0921 87.5597 16.7714H87.5597Z" fill="black"/>
<path d="M90.0601 18.092C90.0601 16.9997 90.8757 16.3699 92.3235 16.2804L93.9719 16.1857V15.6618C93.9719 15.0209 93.5469 14.659 92.726 14.659C92.0556 14.659 91.591 14.9044 91.4577 15.3335H90.295C90.4177 14.2911 91.401 13.6226 92.7815 13.6226C94.3072 13.6226 95.1677 14.38 95.1677 15.6618V19.8082H94.0115V18.9554H93.9165C93.7236 19.2613 93.4528 19.5107 93.1316 19.6781C92.8105 19.8455 92.4506 19.9249 92.0886 19.9082C91.8331 19.9347 91.5749 19.9075 91.3306 19.8284C91.0863 19.7493 90.8614 19.62 90.6702 19.4489C90.4791 19.2778 90.3261 19.0686 90.221 18.8349C90.1159 18.6012 90.0611 18.3481 90.0601 18.092V18.092ZM93.9719 17.5735V17.0661L92.4858 17.1609C91.6478 17.2168 91.2677 17.5011 91.2677 18.0361C91.2677 18.5822 91.7428 18.9001 92.3961 18.9001C92.5876 18.9194 92.7809 18.9001 92.9647 18.8434C93.1485 18.7867 93.319 18.6937 93.4661 18.5699C93.6131 18.4461 93.7336 18.2941 93.8205 18.1229C93.9074 17.9518 93.9589 17.7649 93.9719 17.5735V17.5735Z" fill="black"/>
<path d="M96.7461 16.7712C96.7461 14.8537 97.7346 13.6389 99.2722 13.6389C99.6525 13.6214 100.03 13.7123 100.36 13.9008C100.691 14.0893 100.961 14.3678 101.138 14.7036H101.228V11.3706H102.429V19.8081H101.278V18.8493H101.183C100.992 19.1829 100.713 19.4578 100.376 19.6445C100.039 19.8311 99.6573 19.9223 99.2722 19.9081C97.7241 19.9082 96.7461 18.6934 96.7461 16.7712ZM97.9867 16.7712C97.9867 18.0584 98.5952 18.8329 99.6127 18.8329C100.625 18.8329 101.251 18.0472 101.251 16.7765C101.251 15.5117 100.618 14.7148 99.6127 14.7148C98.6017 14.7148 97.9867 15.4946 97.9867 16.7712H97.9867Z" fill="black"/>
<path d="M107.398 16.7713C107.36 16.3725 107.406 15.9701 107.532 15.5899C107.659 15.2098 107.864 14.8603 108.135 14.5638C108.405 14.2674 108.734 14.0305 109.102 13.8684C109.469 13.7063 109.866 13.6226 110.268 13.6226C110.67 13.6226 111.067 13.7063 111.434 13.8684C111.802 14.0305 112.131 14.2674 112.401 14.5638C112.672 14.8603 112.877 15.2098 113.004 15.5899C113.13 15.9701 113.176 16.3725 113.138 16.7713C113.177 17.1705 113.132 17.5734 113.005 17.9542C112.879 18.3349 112.674 18.6851 112.403 18.9821C112.133 19.2792 111.804 19.5165 111.436 19.679C111.068 19.8414 110.67 19.9253 110.268 19.9253C109.866 19.9253 109.468 19.8414 109.1 19.679C108.732 19.5165 108.403 19.2792 108.133 18.9821C107.862 18.6851 107.657 18.3349 107.531 17.9542C107.404 17.5734 107.359 17.1705 107.398 16.7713V16.7713ZM111.903 16.7713C111.903 15.4558 111.31 14.6866 110.27 14.6866C109.226 14.6866 108.639 15.4558 108.639 16.7713C108.639 18.0972 109.226 18.8606 110.27 18.8606C111.31 18.8606 111.903 18.092 111.903 16.7713Z" fill="black"/>
<path d="M114.75 13.7398H115.906V14.7039H115.995C116.148 14.3576 116.404 14.0674 116.73 13.8735C117.055 13.6797 117.434 13.592 117.811 13.6227C118.108 13.6005 118.405 13.645 118.681 13.7529C118.958 13.8609 119.206 14.0295 119.409 14.2462C119.611 14.463 119.762 14.7224 119.85 15.0052C119.938 15.2879 119.961 15.5869 119.918 15.8798V19.8083H118.717V16.1805C118.717 15.2053 118.292 14.7203 117.404 14.7203C117.203 14.711 117.002 14.7451 116.815 14.8203C116.629 14.8956 116.461 15.0102 116.323 15.1562C116.185 15.3023 116.08 15.4764 116.016 15.6666C115.951 15.8568 115.929 16.0586 115.951 16.2582V19.8083H114.75V13.7398Z" fill="black"/>
<path d="M126.704 12.2285V13.767H128.023V14.7758H126.704V17.8963C126.704 18.532 126.967 18.8103 127.565 18.8103C127.718 18.8098 127.871 18.8006 128.023 18.7827V19.7803C127.807 19.8188 127.589 19.8392 127.369 19.8415C126.034 19.8415 125.502 19.3729 125.502 18.2029V14.7758H124.536V13.767H125.502V12.2285H126.704Z" fill="black"/>
<path d="M129.663 11.3706H130.854V14.7148H130.949C131.108 14.3653 131.372 14.0734 131.704 13.8789C132.036 13.6844 132.42 13.5967 132.804 13.6277C133.099 13.6117 133.393 13.6608 133.667 13.7713C133.94 13.8819 134.185 14.0513 134.386 14.2674C134.586 14.4834 134.736 14.7409 134.825 15.0214C134.914 15.3019 134.939 15.5985 134.9 15.8901V19.8081H133.698V16.1855C133.698 15.2162 133.245 14.7253 132.396 14.7253C132.19 14.7084 131.982 14.7367 131.788 14.8082C131.594 14.8797 131.417 14.9927 131.272 15.1393C131.126 15.2858 131.013 15.4624 130.943 15.6566C130.873 15.8509 130.846 16.0581 130.864 16.2638V19.8081H129.663L129.663 11.3706Z" fill="black"/>
<path d="M141.903 18.1698C141.74 18.7244 141.386 19.2041 140.904 19.5251C140.422 19.846 139.842 19.9878 139.266 19.9254C138.865 19.936 138.467 19.8594 138.098 19.701C137.73 19.5426 137.401 19.3062 137.133 19.0082C136.866 18.7102 136.667 18.3577 136.55 17.9752C136.432 17.5927 136.4 17.1893 136.455 16.7931C136.402 16.3957 136.434 15.9915 136.551 15.6079C136.668 15.2242 136.866 14.8701 137.132 14.5695C137.398 14.2688 137.726 14.0287 138.093 13.8654C138.461 13.702 138.859 13.6192 139.261 13.6227C140.954 13.6227 141.976 14.7763 141.976 16.6819V17.0998H137.678V17.1669C137.66 17.3896 137.688 17.6138 137.761 17.825C137.834 18.0363 137.951 18.23 138.103 18.3936C138.256 18.5573 138.441 18.6874 138.647 18.7755C138.853 18.8637 139.075 18.9079 139.299 18.9054C139.586 18.9398 139.877 18.8882 140.135 18.7572C140.393 18.6262 140.606 18.4217 140.747 18.1697L141.903 18.1698ZM137.678 16.2141H140.752C140.767 16.0104 140.739 15.8058 140.671 15.6135C140.602 15.4211 140.493 15.2453 140.352 15.0972C140.211 14.9492 140.041 14.8322 139.851 14.7538C139.662 14.6754 139.459 14.6373 139.254 14.642C139.046 14.6394 138.84 14.6783 138.648 14.7564C138.455 14.8345 138.281 14.9502 138.134 15.0967C137.987 15.2432 137.871 15.4175 137.793 15.6094C137.715 15.8013 137.676 16.0069 137.678 16.2141H137.678Z" fill="black"/>
</g>
<defs>
<clipPath id="clip0_293_614">
<rect width="161.722" height="53.9073" fill="white" transform="translate(0.321533)"/>
</clipPath>
</defs>
</svg>
