<svg width="93" height="259" viewBox="0 0 93 259" fill="none" xmlns="http://www.w3.org/2000/svg">
<path d="M59.7165 15.9909C59.7165 7.41907 52.1564 0.474121 40.8198 0.474121C31.3981 0.474121 28.1602 5.67326 28.1602 5.67326C28.1602 5.67326 19.2549 7.59779 19.2549 18.6639C19.2549 28.9505 19.2549 46.6487 19.2549 46.6487H33.8876H34.6336H45.4404H57.1879V23.6021C58.1166 22.4619 59.7165 19.927 59.7165 15.9909ZM42.1204 41.0522C41.328 41.0522 40.4631 40.9062 39.5607 40.6517V46.6479H26.6131V31.2213C26.5245 30.9739 26.4376 30.709 26.353 30.4306C20.6129 29.8824 20.8506 20.3961 24.2616 20.3961C24.3079 20.3961 24.3534 20.4001 24.3981 20.4065V20.4057C38.7364 24.9897 48.3791 17.479 51.534 12.2607C51.534 15.9024 55.5642 19.453 56.998 19.777C56.785 32.7908 47.4751 41.0522 42.1204 41.0522Z" fill="#311643"/>
<path d="M39.5599 41.4778V40.652C40.4623 40.9065 41.3271 41.0526 42.1194 41.0526C47.475 41.0526 56.7849 32.7911 56.9963 19.7765C55.5625 19.4525 51.5324 15.9019 51.5324 12.2603C48.3775 17.4793 38.7348 24.9892 24.3965 20.4052V20.406C24.3518 20.3997 24.3071 20.3957 24.26 20.3957C20.849 20.3957 20.6112 29.8819 26.3513 30.4301C26.4359 30.7086 26.5229 30.9735 26.6115 31.2208V41.5983L16.4709 46.3786V58.8945H50.1687V46.2597L39.5599 41.4778Z" fill="#FCBEB7"/>
<path d="M50.1696 58.8951V46.2603L39.5599 41.4777V40.6519C36.5598 39.8053 33.1496 37.7547 30.6458 35.8413L50.1696 58.8951Z" fill="#F9AFAB"/>
<path d="M32.6452 30.7638C34.5961 30.7638 36.1775 29.1824 36.1775 27.2315C36.1775 25.2807 34.5961 23.6992 32.6452 23.6992C30.6944 23.6992 29.1129 25.2807 29.1129 27.2315C29.1129 29.1824 30.6944 30.7638 32.6452 30.7638Z" fill="#F49795"/>
<path d="M56.5424 24.2994C56.0948 26.6716 55.344 28.8347 54.3961 30.7592C52.5282 30.6667 51.0425 29.1227 51.0425 27.2317C51.0425 25.2809 52.6238 23.7002 54.5739 23.7002C55.3024 23.6994 55.9799 23.9204 56.5424 24.2994Z" fill="#F49795"/>
<path d="M50.5675 16.4893C47.9887 16.4893 45.8591 18.4497 45.591 20.9591C44.1891 20.2992 42.9516 20.6567 42.2981 20.9567C42.0284 18.4489 39.9004 16.4893 37.3223 16.4893C34.5624 16.4893 32.3171 18.7346 32.3171 21.4945C32.3171 24.2544 34.5624 26.4997 37.3223 26.4997C40.0208 26.4997 42.2262 24.3534 42.3228 21.678C42.7385 21.4386 44.059 20.829 45.5671 21.6836C45.6668 24.3558 47.8714 26.4997 50.5675 26.4997C53.3274 26.4997 55.5728 24.2544 55.5728 21.4945C55.5736 18.7346 53.3282 16.4893 50.5675 16.4893ZM37.3223 25.8447C34.9238 25.8447 32.9714 23.893 32.9714 21.4945C32.9714 19.0952 34.923 17.1435 37.3223 17.1435C39.7216 17.1435 41.6733 19.0952 41.6733 21.4945C41.6733 23.893 39.7216 25.8447 37.3223 25.8447ZM50.5675 25.8447C48.169 25.8447 46.2165 23.893 46.2165 21.4945C46.2165 19.0952 48.1682 17.1435 50.5675 17.1435C52.9668 17.1435 54.9185 19.0952 54.9185 21.4945C54.9185 23.893 52.9668 25.8447 50.5675 25.8447Z" fill="white"/>
<path d="M50.5716 25.0812C50.1774 25.0812 49.8575 24.7612 49.8575 24.3671V23.033C49.8575 22.6388 50.1774 22.3188 50.5716 22.3188C50.9657 22.3188 51.2857 22.6388 51.2857 23.033V24.3671C51.2857 24.7612 50.9657 25.0812 50.5716 25.0812Z" fill="#311643"/>
<path d="M37.5403 25.0812C37.1453 25.0812 36.8262 24.7612 36.8262 24.3671V23.033C36.8262 22.6388 37.1461 22.3188 37.5403 22.3188C37.9345 22.3188 38.2544 22.6388 38.2544 23.033V24.3671C38.2544 24.7612 37.9345 25.0812 37.5403 25.0812Z" fill="#311643"/>
<path d="M42.6398 33.1791C41.3648 33.1791 40.4966 32.6996 39.9708 32.2632C39.3077 31.7126 39.0325 31.1118 39.0205 31.0862C38.9463 30.9211 39.0197 30.7272 39.1848 30.653C39.3492 30.5788 39.5423 30.6522 39.6173 30.8158C39.6548 30.8972 40.5604 32.7954 43.1911 32.4914C43.3714 32.4706 43.5335 32.5991 43.5542 32.7786C43.575 32.9581 43.4464 33.1209 43.2661 33.1416C43.0467 33.168 42.8385 33.1791 42.6398 33.1791Z" fill="#311643"/>
<path d="M64.0538 240.966L65.3935 246.534L80.0039 251.122L77.903 240.966H64.0538Z" fill="#FCBEB7"/>
<path d="M14.8271 240.966L15.2261 247.845L14.3157 248.18L13.7157 251.125L28.3117 246.534L28.6764 240.966H14.8271Z" fill="#FCBEB7"/>
<path d="M91.2726 253.285L79.395 248.179L80.0038 251.123L65.3934 246.534V250.721C65.3934 252.193 66.1634 253.527 67.3738 254.278L68.6305 257.87C68.739 258.18 69.0319 258.389 69.3614 258.389C69.7891 258.389 70.1354 258.042 70.1354 257.615V255.278L80.1211 258.389H90.2226C91.6915 258.389 92.882 257.198 92.882 255.729C92.882 254.666 92.2484 253.705 91.2726 253.285Z" fill="#2F3D6C"/>
<path d="M28.3254 250.68L28.3126 246.494L13.7158 251.125L14.3158 248.18L2.45344 253.321C1.4784 253.744 0.848017 254.706 0.851208 255.769C0.855198 257.238 2.04967 258.425 3.51861 258.421L13.6201 258.391L23.9457 255.141L23.9529 257.588C23.9545 258.015 24.3016 258.361 24.7293 258.359C25.058 258.358 25.3508 258.149 25.4585 257.839L26.8213 253.905C27.7572 253.123 28.3286 251.953 28.3254 250.68Z" fill="#2F3D6C"/>
<path d="M17.0367 100.919L11.6476 123.739C10.0917 130.329 9.47813 137.107 9.82681 143.869L14.828 240.965H28.6773L34.5905 140.197L64.0547 240.965H77.9038L53.5192 100.918H17.0367V100.919Z" fill="#202124"/>
<path d="M35.3613 52.7222C37.8204 52.7222 39.7872 50.3541 41.1134 47.9556H27.0895C29.2287 50.3477 32.1577 52.7222 35.3613 52.7222Z" fill="white"/>
<path d="M59.5305 54.6314C57.7911 51.1533 54.9019 48.383 51.3528 46.7912L43.0307 43.0586C43.0307 43.4496 42.3509 45.7156 41.1125 47.9553C39.7864 50.3538 37.8196 52.722 35.3605 52.722C32.1569 52.722 29.2278 50.3474 27.0887 47.9553C24.9184 45.5281 23.5627 43.0833 23.5627 43.0833L13.9073 47.5572C9.95529 49.3884 7.04535 52.9111 5.99451 57.1384L0.350951 79.8323C-0.569031 83.533 0.490573 87.4459 3.15237 90.1763C7.59589 88.6172 15.9388 85.3698 15.9388 85.3698L17.035 100.92H53.5167L62.5801 60.7313L59.5305 54.6314Z" fill="#FDFFFD"/>
<path d="M35.7218 56.1333C33.6935 56.1333 31.6301 55.5158 29.5875 54.299C27.9662 53.3327 26.3544 51.9882 24.7969 50.3015C22.1534 47.4394 20.5433 44.5183 20.5273 44.4896L21.0691 44.2382C21.085 44.2669 22.6458 47.0987 25.243 49.9065C26.7606 51.5486 28.3269 52.8548 29.8979 53.7899C31.8448 54.9493 33.8044 55.5365 35.7218 55.5365C37.5314 55.5365 39.1615 54.9325 40.5667 53.742C41.7037 52.7782 42.701 51.4289 43.5301 49.7318C44.9551 46.8154 45.3445 44.1257 45.3485 44.0962L45.9093 44.3475C45.8918 44.4712 45.5344 46.9806 44.071 49.9807C43.2061 51.7553 42.1585 53.1715 40.9576 54.1912C39.44 55.4807 37.679 56.1333 35.7218 56.1333Z" fill="white"/>
<path d="M57.4607 178.403C61.1218 178.403 64.0897 175.435 64.0897 171.774C64.0897 168.113 61.1218 165.145 57.4607 165.145C53.7997 165.145 50.8318 168.113 50.8318 171.774C50.8318 175.435 53.7997 178.403 57.4607 178.403Z" fill="#FF753A"/>
<path d="M22.7304 178.403C26.3915 178.403 29.3594 175.435 29.3594 171.774C29.3594 168.113 26.3915 165.145 22.7304 165.145C19.0693 165.145 16.1014 168.113 16.1014 171.774C16.1014 175.435 19.0693 178.403 22.7304 178.403Z" fill="#FF753A"/>
<path d="M13.9655 50.5038C13.9655 52.8416 12.0705 54.7382 9.73105 54.7382C8.79192 54.7382 7.92457 54.4326 7.22241 53.9148C8.54214 51.4046 10.5848 49.3221 13.1134 47.9561C13.6488 48.6646 13.9655 49.5471 13.9655 50.5038Z" fill="#FF78BA"/>
<path d="M67.7186 79.3506H56.5511C56.1801 79.3506 55.8785 79.0498 55.8785 78.6779V57.7976C55.8785 57.4266 56.1793 57.125 56.5511 57.125H67.7186C68.0896 57.125 68.3912 57.4258 68.3912 57.7976V78.6779C68.3912 79.049 68.0904 79.3506 67.7186 79.3506Z" fill="#4A5EA3"/>
<path d="M68.9944 84.6812L73.9063 89.5954L74.7441 86.8028L68.9944 84.6812Z" fill="#2F3D6C"/>
<path d="M72.6224 61.9126L65.545 62.3802C65.0224 62.4145 64.6178 62.8517 64.6226 63.3752L63.9189 63.419C63.4617 63.4478 63.0899 63.7988 63.0365 64.2544L62.9495 64.9901H62.9463C62.4228 64.9965 62.0032 65.4266 62.0103 65.95C62.0151 66.3346 62.2513 66.6777 62.6088 66.8197L64.1926 67.4492C64.1894 68.2567 64.6578 68.9916 65.3902 69.3299L70.3157 71.6071C71.0314 71.9382 71.8261 72.0595 72.6073 71.9582C74.3643 71.73 75.7861 70.419 76.1564 68.6868L76.4628 67.2538C76.7923 65.7098 76.3143 64.1044 75.1933 62.9938C74.5079 62.3139 73.5863 61.927 72.6224 61.9126Z" fill="#FCBEB7"/>
<path d="M40.6353 49.7754L45.4651 61.5812C45.7379 62.2474 46.136 62.8506 46.6267 63.3397L47.4861 64.1959C47.6856 64.3946 47.9641 64.2805 47.9673 63.9988L47.98 62.786C47.9872 62.0926 47.8484 61.3833 47.5763 60.717L42.7465 48.9113C42.4529 48.1931 41.742 47.8038 41.1587 48.0424C40.5754 48.2817 40.3408 49.0573 40.6353 49.7754Z" fill="#6277D7"/>
<path d="M46.985 56.8084L44.3336 53.1564C43.9921 52.6857 43.4631 52.3857 42.8838 52.333L38.4371 51.9301C37.8315 51.875 37.23 52.0697 36.7712 52.4686L34.4548 54.4818C34.1205 54.7722 33.8365 55.1161 33.6138 55.4991L30.7717 60.0088L3.82574 81.7796C1.16713 83.9275 0.932561 87.8963 3.31829 90.3427C5.69125 92.7763 9.63762 92.6574 11.8606 90.0865L34.616 63.7669L39.4018 60.8243L42.9342 60.9456C43.7552 60.9735 44.478 60.411 44.6528 59.6083L44.8467 59.3785C45.181 58.9819 45.3166 58.4545 45.2137 57.9463L45.0118 56.9497L46.1536 57.6869C46.3204 57.7946 46.5287 57.8154 46.713 57.7428C47.0872 57.596 47.222 57.1348 46.985 56.8084Z" fill="#FCBEB7"/>
<path d="M15.9403 85.3683L25.9109 73.8354L16.3193 90.7446L15.9403 85.3683Z" fill="#FF78BA"/>
<path d="M38.7402 106.171L55.2226 110.711L54.3297 105.583L38.7402 106.171Z" fill="#2F3D6C"/>
<path d="M58.0584 52.2184C57.5374 52.4355 56.9653 52.5551 56.3652 52.5551C53.9332 52.5551 51.9617 50.5835 51.9617 48.1515C51.9617 47.8028 52.0023 47.4637 52.0789 47.1382C54.4527 48.3414 56.4993 50.0856 58.0584 52.2184Z" fill="#FF78BA"/>
<path d="M7.59741 91.2079C9.85937 91.2079 11.6931 89.3742 11.6931 87.1122C11.6931 84.8503 9.85937 83.0166 7.59741 83.0166C5.33546 83.0166 3.50183 84.8503 3.50183 87.1122C3.50183 89.3742 5.33546 91.2079 7.59741 91.2079Z" fill="#F9AFAB"/>
</svg>
