<svg width="108" height="252" viewBox="0 0 108 252" fill="none" xmlns="http://www.w3.org/2000/svg">
<path d="M77.0597 16.6573C66.8889 18.3527 54.2162 14.5672 52.6273 12.1562C48.9451 17.7677 47.0742 17.5921 47.0742 17.5921V21.8002L46.2428 20.9689C45.9864 20.3892 45.5792 19.8135 44.9701 19.8135C41.6212 19.8135 41.3874 29.128 47.0237 29.6665C47.1348 30.0317 47.2497 30.3728 47.367 30.682V45.5909H60.0801V39.7269C60.9348 39.9616 61.7538 40.096 62.5059 40.096C67.5183 40.096 76.0597 32.7255 77.0278 20.9689C77.0861 18.7506 77.0597 16.6573 77.0597 16.6573Z" fill="#FCBEB7"/>
<path d="M61.6285 0.699707C52.861 0.699707 51.1073 5.37562 51.1073 5.37562C47.3661 5.37562 41.6381 12.2147 45.0872 19.8129L45.1051 19.8307L47.0747 21.8004V17.5922C47.0747 17.5922 48.9449 17.7678 52.6278 12.1564C54.2168 14.5666 66.8902 18.3521 77.0602 16.6575C77.0602 16.6575 77.0867 18.7507 77.0284 20.969C77.0284 20.9713 77.0284 20.9737 77.0284 20.976C80.8263 9.98705 73.2018 0.699707 61.6285 0.699707Z" fill="#311643"/>
<path d="M57.8586 24.1791C57.4709 24.1791 57.157 23.8652 57.157 23.4774V22.1674C57.157 21.7797 57.4709 21.4658 57.8586 21.4658C58.2463 21.4658 58.5602 21.7797 58.5602 22.1674V23.4774C58.5594 23.8644 58.2456 24.1791 57.8586 24.1791Z" fill="#311643"/>
<path d="M70.864 24.1791C70.4763 24.1791 70.1624 23.8652 70.1624 23.4774V22.1674C70.1624 21.7797 70.4763 21.4658 70.864 21.4658C71.2517 21.4658 71.5656 21.7797 71.5656 22.1674V23.4774C71.5656 23.8644 71.2509 24.1791 70.864 24.1791Z" fill="#311643"/>
<path d="M63.0155 32.3656C61.7638 32.3656 60.9115 31.8947 60.3948 31.4658C59.7436 30.9251 59.4733 30.3353 59.4616 30.3105C59.3886 30.1488 59.4608 29.9585 59.6224 29.8854C59.784 29.8124 59.9736 29.8847 60.0474 30.0455C60.0839 30.1248 60.9728 31.9895 63.5563 31.6904C63.7327 31.6702 63.892 31.7961 63.913 31.9724C63.934 32.1488 63.8073 32.3081 63.6309 32.3291C63.4157 32.3539 63.2106 32.3656 63.0155 32.3656Z" fill="#311643"/>
<path d="M53.2014 29.9941C55.117 29.9941 56.6699 28.4412 56.6699 26.5256C56.6699 24.61 55.117 23.0571 53.2014 23.0571C51.2858 23.0571 49.7329 24.61 49.7329 26.5256C49.7329 28.4412 51.2858 29.9941 53.2014 29.9941Z" fill="#F49795"/>
<path d="M76.6665 23.6453C76.2267 25.9747 75.4901 28.0982 74.5585 29.9887C72.724 29.8977 71.2656 28.3818 71.2656 26.5248C71.2656 24.6096 72.818 23.0571 74.7333 23.0571C75.4489 23.0571 76.1148 23.2739 76.6665 23.6453Z" fill="#F49795"/>
<path d="M70.864 15.9775C68.3318 15.9775 66.2409 17.9029 65.9775 20.366C64.6007 19.718 63.3855 20.0692 62.7445 20.3636C62.4803 17.9014 60.3902 15.9775 57.8588 15.9775C55.1487 15.9775 52.9443 18.1826 52.9443 20.892C52.9443 23.6014 55.1494 25.8064 57.8588 25.8064C60.5076 25.8064 62.673 23.6993 62.7686 21.073C63.1757 20.8423 64.4834 20.2448 65.9534 21.0769C66.0513 23.7008 68.2161 25.8064 70.8633 25.8064C73.5734 25.8064 75.7777 23.6014 75.7777 20.892C75.7777 18.1826 73.5742 15.9775 70.864 15.9775ZM57.8588 25.1639C55.503 25.1639 53.5869 23.2478 53.5869 20.892C53.5869 18.5362 55.503 16.6201 57.8588 16.6201C60.2146 16.6201 62.1307 18.5362 62.1307 20.892C62.1307 23.2478 60.2139 25.1639 57.8588 25.1639ZM70.864 25.1639C68.5082 25.1639 66.5922 23.2478 66.5922 20.892C66.5922 18.5362 68.5082 16.6201 70.864 16.6201C73.2191 16.6201 75.1359 18.5362 75.1359 20.892C75.1359 23.2478 73.2191 25.1639 70.864 25.1639Z" fill="white"/>
<path d="M60.0792 45.5902V39.7263C57.2043 38.9361 53.9316 37.0006 51.4717 35.1553L60.0792 45.5902Z" fill="#F9AFAB"/>
<path d="M90.4679 234.948H77.0035L54.3644 135.391L31.1712 234.948H17.7068L30.252 123.255H79.9949L90.4679 234.948Z" fill="#FDFFFD"/>
<path d="M78.0725 240.362V249.877C78.0725 250.986 78.9723 251.886 80.0818 251.886H107.07C107.327 251.886 107.534 251.678 107.534 251.421V249.589C107.534 248.788 107.076 248.058 106.355 247.71L91.1376 240.363H78.0725V240.362Z" fill="#2F3D6C"/>
<path d="M29.7067 240.362V249.877C29.7067 250.986 28.8069 251.886 27.6974 251.886H0.710262C0.453856 251.886 0.245605 251.678 0.245605 251.421V249.589C0.245605 248.788 0.704033 248.058 1.42508 247.71L16.6424 240.363H29.7067V240.362Z" fill="#2F3D6C"/>
<path d="M77.0037 234.948L78.0176 240.362H91.1379L90.4681 234.948H77.0037Z" fill="#FCBEB7"/>
<path d="M17.7068 234.948L16.6423 240.362H29.7066L31.1712 234.948H17.7068Z" fill="#FCBEB7"/>
<path d="M29.9834 125.651L80.4877 128.504L79.9951 123.255H30.2522" fill="#4A5EA3"/>
<path d="M76.7006 75.1189L79.9958 123.256H30.2529L33.3011 88.9548L32.6251 70.6497L30.0432 73.223L18.5647 64.3988L24.7324 54.3477C26.2577 51.8621 28.4627 49.8644 31.0866 48.5909L45.2349 41.7239L45.7523 41.4729L47.3677 40.689C47.3677 40.689 54.7506 45.5343 60.0583 40.689L62.8935 41.7581L63.47 41.9749L78.4651 47.6275C80.8132 48.5125 82.7246 50.2778 83.7929 52.5497L90.1526 66.0779L76.7006 75.1189Z" fill="#FF753A"/>
<path d="M62.8927 41.7578C60.46 43.4851 57.5602 44.4159 54.516 44.4159C51.3094 44.4159 48.2612 43.3825 45.7523 41.4727L45.2349 41.7236C47.8712 43.8021 51.1073 44.9303 54.5168 44.9303C57.7856 44.9303 60.8951 43.8938 63.47 41.9746L62.8927 41.7578Z" fill="white"/>
<path d="M30.469 50.2301C30.469 52.5914 28.5545 54.5051 26.1932 54.5051C25.6983 54.5051 25.2243 54.4212 24.7822 54.2666C26.1474 52.0723 28.044 50.2643 30.2911 49.0063C30.4068 49.3941 30.469 49.8043 30.469 50.2301Z" fill="#4A62D3"/>
<path d="M33.0523 174.126C36.6118 174.126 39.4974 171.24 39.4974 167.68C39.4974 164.121 36.6118 161.235 33.0523 161.235C29.4927 161.235 26.6072 164.121 26.6072 167.68C26.6072 171.24 29.4927 174.126 33.0523 174.126Z" fill="#4A5EA3"/>
<path d="M76.0496 174.126C79.6091 174.126 82.4947 171.24 82.4947 167.68C82.4947 164.121 79.6091 161.235 76.0496 161.235C72.4901 161.235 69.6045 164.121 69.6045 167.68C69.6045 171.24 72.4901 174.126 76.0496 174.126Z" fill="#4A5EA3"/>
<path d="M54.9185 116.882L14.4078 128.442C13.7412 128.632 13.0465 128.246 12.8569 127.58L5.5952 102.132C5.40484 101.465 5.79099 100.77 6.45764 100.581L46.9683 89.0207C47.635 88.8304 48.3296 89.2165 48.5192 89.8832L55.7809 115.331C55.9713 115.998 55.5852 116.692 54.9185 116.882Z" fill="#4A5EA3"/>
<path d="M69.528 73.9614H58.6533C58.292 73.9614 57.9983 73.6685 57.9983 73.3064V52.9734C57.9983 52.6121 58.2912 52.3184 58.6533 52.3184H69.528C69.8893 52.3184 70.183 52.6113 70.183 52.9734V73.3064C70.183 73.6677 69.8901 73.9614 69.528 73.9614Z" fill="#4A5EA3"/>
<path d="M99.2178 87.5076L90.1512 66.0759L83.2328 70.7021L73.5135 62.1847L71.5268 55.3737C71.4988 55.1561 71.3278 54.9852 71.111 54.9564C70.1584 54.8305 69.3418 55.6332 69.4506 56.5873L69.7917 59.571L66.185 60.0496C65.2122 60.1786 64.223 60.0931 63.2868 59.7986L59.931 58.7435C58.9232 58.4264 57.8517 58.9983 57.5534 60.0107L56.2581 59.7108C55.6257 59.5647 54.9924 59.9486 54.8292 60.5764L54.8199 60.6113C54.6801 61.1513 54.931 61.7162 55.4252 61.9742C55.161 63.0068 55.7741 64.0612 56.8028 64.3417L56.8323 64.3494C56.5549 65.3898 57.0685 66.4784 58.0483 66.9259L60.5875 68.086C61.5424 68.5219 62.589 68.7208 63.6372 68.6633L69.4055 68.194L88.9926 93.795L88.9965 93.7997C90.7292 95.8672 93.6826 96.5782 96.214 95.3948C99.1782 94.0063 100.508 90.5169 99.2178 87.5076Z" fill="#FCBEB7"/>
<path d="M83.9397 52.8635C83.4766 53.043 82.9739 53.1417 82.4479 53.1417C80.1643 53.1417 78.3127 51.2901 78.3127 49.0058C78.3127 48.5326 78.3928 48.0773 78.5389 47.6538C80.8527 48.5481 82.7346 50.3002 83.7913 52.5481L83.9397 52.8635Z" fill="#4A62D3"/>
<path d="M84.4697 71.7852L94.9653 77.4541L97.3375 83.0624L84.4697 71.7852Z" fill="#F9AFAB"/>
<path d="M30.2265 123.93L15.3682 98.0385L18.5119 97.1411L30.2265 123.93Z" fill="#2F3D6C"/>
<path d="M93.2607 94.4648C95.5128 94.4648 97.3384 92.6392 97.3384 90.3872C97.3384 88.1352 95.5128 86.3096 93.2607 86.3096C91.0087 86.3096 89.1831 88.1352 89.1831 90.3872C89.1831 92.6392 91.0087 94.4648 93.2607 94.4648Z" fill="#F9AFAB"/>
<path d="M15.7736 78.7801C15.7736 80.885 14.2701 82.6394 12.2771 83.0256L11.5491 81.3317C10.8172 79.6309 10.9298 77.6838 11.8529 76.0785L12.6835 74.6333C14.4705 75.1648 15.7736 76.8205 15.7736 78.7801Z" fill="#F9AFAB"/>
<path d="M41.3095 119.241L36.2505 116.983C35.9001 116.827 35.6281 116.534 35.4976 116.174L34.7641 114.154L37.3204 114.782L38.1354 116.532C38.4097 117.121 39.1028 117.386 39.7003 117.129L38.6358 113.915C38.4369 113.404 38.0531 112.986 37.5605 112.743L32.2187 110.116L23.0036 80.2265L30.0439 73.2227L18.5654 64.3984L11.8538 76.0789C10.9315 77.685 10.8188 79.6313 11.55 81.3321L30.1775 123.931L33.8744 124.101C34.3189 124.122 34.7384 123.897 34.9669 123.516L35.3694 122.844L37.315 123.003C37.7314 123.037 38.1362 122.854 38.3857 122.517L38.8433 121.899L39.116 121.972C39.8612 122.168 40.6436 121.828 41.008 121.15L42.3584 121.6C42.663 120.66 42.21 119.643 41.3095 119.241Z" fill="#FCBEB7"/>
</svg>
