<svg width="45" height="45" viewBox="0 0 45 45" fill="none" xmlns="http://www.w3.org/2000/svg">
<g clip-path="url(#clip0_270_607)">
<path d="M0.681763 23.1818C0.681763 27.4971 1.96138 31.7154 4.35879 35.3034C6.7562 38.8913 10.1637 41.6878 14.1505 43.3392C18.1372 44.9906 22.5241 45.4226 26.7565 44.5808C30.9888 43.7389 34.8764 41.6609 37.9277 38.6096C40.979 35.5583 43.057 31.6707 43.8989 27.4383C44.7407 23.206 44.3087 18.8191 42.6573 14.8324C41.0059 10.8456 38.2094 7.43809 34.6215 5.04067C31.0335 2.64326 26.8152 1.36365 22.4999 1.36365C16.7134 1.36365 11.1639 3.66234 7.07216 7.75405C2.98046 11.8457 0.681763 17.3953 0.681763 23.1818V23.1818Z" fill="#FF753A"/>
<path d="M22.5 12.2727V27.9545" stroke="#15803D" stroke-width="2" stroke-miterlimit="10" stroke-linecap="round"/>
<path d="M28.4523 22.1932L22.5886 28.1045C22.5772 28.1165 22.5634 28.126 22.5482 28.1325C22.533 28.139 22.5166 28.1424 22.5 28.1424C22.4834 28.1424 22.467 28.139 22.4518 28.1325C22.4366 28.126 22.4228 28.1165 22.4114 28.1045L16.5477 22.1932" stroke="#15803D" stroke-width="2" stroke-miterlimit="10" stroke-linecap="round"/>
<path d="M33.4091 25.9091V30.1227C33.4091 31.1751 32.9911 32.1844 32.2469 32.9286C31.5027 33.6728 30.4934 34.0909 29.4409 34.0909H15.5591C14.5067 34.0909 13.4974 33.6728 12.7532 32.9286C12.009 32.1844 11.5909 31.1751 11.5909 30.1227V25.9091" stroke="#15803D" stroke-width="2" stroke-linecap="round" stroke-linejoin="round"/>
</g>
<defs>
<clipPath id="clip0_270_607">
<rect width="45" height="45" fill="white"/>
</clipPath>
</defs>
</svg>
