<svg width="369" height="277" viewBox="0 0 369 277" fill="none" xmlns="http://www.w3.org/2000/svg">
<path d="M162.776 220.96C161.007 218.133 159.697 215.076 158.892 211.859C158.502 210.273 158.111 208.595 158.088 206.963C158.088 206.159 158.18 205.125 158.892 204.596C159.513 204.16 160.869 204.183 160.938 205.194C161.168 205.194 161.398 205.194 161.627 205.194C161.558 204.596 161.145 198.805 162.041 199.126C162.317 199.218 162.501 198.943 162.455 198.713C161.788 194.3 161.719 189.796 162.271 185.36C162.547 183.154 162.983 180.971 163.558 178.833C163.949 177.362 164.73 173.272 166.982 173.892C168.89 174.398 168.775 177.891 168.936 179.362C169.188 181.706 169.418 184.05 169.625 186.371C170.039 190.991 170.361 195.587 170.613 200.207C170.912 205.516 171.096 210.824 171.188 216.133C171.188 216.57 171.877 216.57 171.877 216.133C171.671 205.217 171.073 194.3 170.016 183.43C169.786 181.017 169.717 178.511 169.211 176.144C168.959 174.926 168.361 173.409 166.982 173.157C165.396 172.835 164.362 174.329 163.834 175.593C162.914 177.776 162.409 180.235 161.972 182.556C160.984 187.957 160.915 193.473 161.742 198.897C161.88 198.759 162.018 198.621 162.156 198.483C159.812 197.679 160.777 204.297 160.869 205.217C160.915 205.653 161.581 205.676 161.558 205.217C161.489 204.022 160.248 203.447 159.145 203.723C157.422 204.137 157.238 206.228 157.376 207.676C157.812 212.502 159.536 217.236 162.11 221.327C162.432 221.672 163.029 221.327 162.776 220.96Z" fill="#E8E8E8"/>
<path d="M171.303 197.563C171.418 196.735 171.579 195.931 171.786 195.104C171.901 194.713 172.016 194.299 172.154 193.909C172.223 193.725 172.843 192.024 173.303 192.874C173.464 193.196 173.923 193.035 173.946 192.691C174.107 189.45 174.934 186.302 176.474 183.429C176.796 182.808 177.669 180.924 178.451 182.142C178.818 182.739 178.795 183.521 178.818 184.187C178.864 185.911 178.887 187.635 178.887 189.358C178.887 196.276 178.543 203.17 177.83 210.042C177.784 210.433 178.405 210.502 178.497 210.134C178.658 209.605 180.335 206.135 181.186 207.928C181.53 208.663 181.163 210.134 181.094 210.915C180.91 213.214 180.657 215.512 180.312 217.81C180.243 218.247 180.91 218.431 180.979 217.994C181.255 216.224 181.461 214.455 181.645 212.662C181.737 211.651 181.829 210.617 181.898 209.583C181.944 208.939 182.036 208.227 181.829 207.606C181.553 206.779 180.795 206.457 180.013 206.871C178.887 207.468 178.198 208.778 177.853 209.927C178.083 209.95 178.313 209.996 178.52 210.019C179.393 201.424 179.715 192.783 179.508 184.164C179.485 183.199 179.462 181.682 178.451 181.131C177.439 180.579 176.704 181.59 176.267 182.349C174.429 185.474 173.464 189.036 173.28 192.645C173.487 192.576 173.716 192.53 173.923 192.461C173.533 191.725 172.613 191.771 172.108 192.369C171.648 192.92 171.464 193.771 171.28 194.437C171.004 195.38 170.821 196.322 170.683 197.287C170.568 197.816 171.234 198 171.303 197.563Z" fill="#E8E8E8"/>
<path d="M60.8278 269.083C57.5643 266.463 54.7145 263.337 52.4393 259.821C51.3362 258.12 50.3939 256.351 49.5665 254.512C48.8311 252.858 47.3602 249.985 49.0609 248.468C49.1758 248.353 49.1758 248.169 49.1069 248.054C48.6473 247.181 44.8322 239.988 46.4639 239.643C46.6938 239.597 46.7627 239.321 46.6708 239.137C44.5794 235.069 42.465 230.887 41.5687 226.336C41.1321 224.176 40.8333 221.602 41.4079 219.441C41.5687 218.775 41.5458 218.867 42.2812 218.637C43.0166 218.407 43.0166 218.407 43.5682 218.936C44.0049 219.373 44.3496 219.924 44.6713 220.453C45.3148 221.464 45.9124 222.498 46.4869 223.555C48.7392 227.715 50.6697 232.036 52.6921 236.287C54.8295 240.769 56.9898 245.227 59.1271 249.709C61.5402 254.742 63.9534 259.752 66.3665 264.785C66.5504 265.176 67.1479 264.831 66.964 264.441C62.0688 254.259 57.1966 244.055 52.3014 233.874C50.0032 229.071 47.9118 224.015 44.9012 219.579C44.1657 218.499 42.6029 216.73 41.27 218.109C40.7873 218.614 40.6724 219.327 40.5805 219.993C40.4196 221.28 40.3967 222.567 40.4886 223.854C40.9252 229.439 43.5222 234.587 46.0503 239.505C46.1192 239.344 46.1882 239.16 46.2571 238.999C44.8552 239.298 45.3148 241.068 45.6366 242.01C46.418 244.216 47.3602 246.354 48.4864 248.422C48.5094 248.284 48.5323 248.146 48.5323 248.008C47.1994 249.203 47.4752 251.088 47.9808 252.605C48.7392 254.788 49.8193 256.925 50.9914 258.902C53.4275 262.993 56.5761 266.601 60.2762 269.589C60.6899 269.841 61.1725 269.359 60.8278 269.083Z" fill="#E8E8E8"/>
<path d="M58.0471 245.136C57.2657 243.872 56.6911 242.539 56.3464 241.091C56.1855 240.356 56.0936 239.62 56.0476 238.862C56.0247 238.54 56.0247 238.218 56.0476 237.874C56.0476 237.736 56.0706 237.621 56.0706 237.483C56.0017 236.931 56.2545 236.678 56.852 236.701C57.0589 237.092 57.6334 236.747 57.4495 236.357C55.542 232.312 54.4159 227.922 54.1861 223.464C54.0942 221.694 53.7264 218.752 55.0364 217.327C56.5992 215.604 58.6676 221.211 59.0583 222.2C62.2988 230.427 65.2175 238.793 67.7915 247.273C69.2624 252.1 70.6183 256.972 71.8594 261.867C71.9743 262.304 72.6408 262.12 72.5258 261.683C69.9748 251.686 66.9642 241.803 63.5168 232.082C62.6665 229.669 61.7702 227.279 60.8509 224.889C60.0236 222.728 59.3111 220.453 58.116 218.454C57.5415 217.488 56.3464 215.443 54.9905 216.385C53.5656 217.373 53.4736 219.626 53.4507 221.166C53.3587 226.543 54.5768 231.852 56.852 236.724C57.0589 236.61 57.2427 236.495 57.4495 236.38C57.1738 235.851 56.5992 235.69 56.0706 235.989C55.3122 236.426 55.3582 237.552 55.3352 238.287C55.3122 240.838 56.0706 243.343 57.4266 245.504C57.6794 245.871 58.2769 245.527 58.0471 245.136Z" fill="#E8E8E8"/>
<path d="M306.898 237.874C305.082 235.07 303.611 232.059 302.554 228.911C302.049 227.394 301.612 225.831 301.29 224.245C300.945 222.568 300.762 220.844 301.612 219.281C301.428 219.304 301.244 219.327 301.06 219.35C302.6 220.706 303.68 222.338 304.301 224.291C304.439 224.705 305.082 224.544 304.967 224.108C302.508 214.961 301.313 205.308 303.657 196C303.427 196 303.221 196 302.991 196C303.956 199.264 304.691 202.596 305.197 205.975C305.427 205.906 305.634 205.86 305.864 205.791C305.128 201.861 304.967 197.862 305.404 193.886C305.795 190.439 306.346 186.164 309.104 183.728C308.943 183.728 308.782 183.728 308.621 183.728C309.38 184.693 309.334 185.934 309.357 187.106C309.38 188.14 309.38 189.175 309.357 190.232C309.334 192.461 309.288 194.69 309.242 196.92C309.127 201.309 308.943 205.699 308.874 210.065C308.713 218.73 308.966 227.44 310.713 235.966C310.805 236.403 311.471 236.219 311.379 235.782C309.541 226.727 309.403 217.466 309.61 208.273C309.702 203.745 309.885 199.195 310 194.667C310.046 192.438 310.069 190.209 310.069 187.98C310.069 186.348 310.207 184.601 309.127 183.245C309.012 183.084 308.759 183.13 308.644 183.245C305.932 185.635 305.289 189.634 304.852 193.036C304.278 197.333 304.439 201.7 305.22 205.975C305.312 206.411 305.955 206.227 305.887 205.791C305.381 202.412 304.646 199.08 303.68 195.816C303.588 195.495 303.106 195.472 303.014 195.816C300.647 205.239 301.842 215.03 304.324 224.291C304.554 224.222 304.76 224.176 304.99 224.108C304.347 222.062 303.198 220.292 301.589 218.868C301.428 218.73 301.152 218.73 301.037 218.937C299.475 221.763 300.762 225.486 301.658 228.336C302.761 231.83 304.324 235.162 306.323 238.242C306.53 238.586 307.128 238.242 306.898 237.874Z" fill="#E8E8E8"/>
<path d="M309.816 221.924C309.678 218.04 310.23 214.225 311.494 210.571C311.356 210.64 311.218 210.732 311.08 210.801C311.31 211.076 311.54 211.352 311.77 211.628C311.839 212.019 312.436 211.904 312.436 211.536C312.62 207.537 313.356 203.584 314.643 199.792C315.286 197.885 316.067 196.023 316.987 194.207C317.86 192.484 318.802 190.691 320.503 189.634C320.342 189.496 320.158 189.381 319.997 189.243C317.607 202.55 315.769 215.926 314.482 229.393C314.712 229.393 314.941 229.393 315.171 229.393C315.171 226.681 316.044 224.13 317.745 222.016C317.538 221.924 317.354 221.855 317.148 221.763C317.125 224.751 316.849 227.738 316.297 230.68C316.205 231.117 316.803 231.278 316.964 230.864C317.515 229.393 318.641 228.29 320.112 227.761C319.974 227.623 319.837 227.486 319.699 227.348C319.124 230.22 318.55 233.116 317.952 235.989C317.86 236.426 318.527 236.609 318.619 236.173C319.193 233.3 319.768 230.404 320.365 227.532C320.411 227.302 320.204 227.003 319.951 227.118C318.228 227.761 316.964 229.002 316.32 230.703C316.55 230.772 316.757 230.818 316.987 230.887C317.561 227.876 317.86 224.843 317.883 221.786C317.883 221.51 317.492 221.303 317.286 221.533C315.47 223.785 314.482 226.497 314.505 229.393C314.505 229.853 315.148 229.83 315.194 229.393C316.458 215.994 318.297 202.665 320.687 189.427C320.733 189.151 320.457 188.876 320.181 189.036C318.687 189.979 317.722 191.427 316.895 192.966C315.884 194.851 315.01 196.827 314.298 198.85C312.827 202.941 312.023 207.215 311.816 211.559C312.046 211.536 312.275 211.49 312.482 211.467C312.344 210.778 311.977 210.387 311.31 210.157C311.126 210.088 310.942 210.226 310.896 210.387C309.632 214.11 309.058 217.994 309.196 221.924C309.127 222.361 309.816 222.361 309.816 221.924Z" fill="#E8E8E8"/>
<path d="M269.069 116.734C269.345 113.861 272.999 115.125 274.493 115.976C275.803 116.711 277.159 117.585 278.721 117.516C281.479 117.424 283.18 114.804 285.754 114.229C288.719 113.563 290.557 117.102 293.499 116.78C294.832 116.619 295.935 115.746 297.084 115.102C298.831 114.114 300.21 114.298 301.842 115.424C303.037 116.229 304.14 117.056 305.657 116.987C306.737 116.918 307.679 116.412 307.932 115.332C308.047 114.896 307.38 114.712 307.265 115.148C306.806 117.01 304.278 116.252 303.197 115.539C302.025 114.781 300.853 113.747 299.382 113.701C296.28 113.609 294.533 117.286 291.247 115.608C290.006 114.965 288.949 113.999 287.593 113.609C286.466 113.31 285.34 113.54 284.306 114.045C283.065 114.643 282.008 115.539 280.813 116.183C278.928 117.171 277.297 116.78 275.504 115.769C274.079 114.965 272.47 113.907 270.724 114.275C269.46 114.528 268.494 115.447 268.357 116.734C268.334 117.171 269.023 117.171 269.069 116.734Z" fill="#E8E8E8"/>
<path d="M291.959 125.675C292.924 123.928 295.246 123.101 297.015 124.112C298.233 124.801 299.222 126.272 300.761 126.272C302.554 126.272 303.404 124.296 304.967 123.744C307.219 122.963 308.552 124.388 310.253 125.514C311.356 126.249 312.551 126.364 313.677 125.606C314.987 124.732 315.861 122.917 317.607 122.825C320.25 122.687 324.065 127.237 326.501 124.089C326.777 123.744 326.295 123.262 326.019 123.606C323.973 126.249 320.158 122.181 317.791 122.135C316.688 122.112 315.815 122.664 315.033 123.399C314.137 124.25 313.218 125.606 311.816 125.445C310.414 125.284 309.495 123.859 308.254 123.285C307.173 122.779 305.886 122.71 304.76 123.101C303.404 123.56 302.738 124.847 301.497 125.399C299.957 126.111 298.762 124.457 297.59 123.698C295.476 122.296 292.511 123.147 291.316 125.353C291.155 125.721 291.752 126.065 291.959 125.675Z" fill="#E8E8E8"/>
<path d="M21.2982 120.688C21.3212 119.401 22.769 119.493 23.5045 119.884C23.9641 120.136 24.3548 120.504 24.7455 120.849C25.2741 121.308 25.8027 121.791 26.4462 122.044C27.5263 122.458 28.5376 122.159 29.4339 121.492C30.491 120.711 31.3414 119.424 32.6514 119.056C34.2601 118.597 35.5931 120.021 36.8341 120.78C37.8453 121.4 38.9255 121.791 40.0976 121.331C41.6834 120.711 42.4188 118.918 44.0275 118.321C44.9009 117.999 45.4984 118.137 46.0959 118.895C46.3258 119.171 46.4637 119.47 46.7394 119.723C47.1072 120.067 47.5898 120.251 48.0954 120.32C49.1985 120.458 50.2787 119.952 50.8303 118.987C51.0601 118.597 50.4625 118.252 50.2327 118.642C49.7271 119.539 48.532 119.929 47.5898 119.47C46.8314 119.079 46.6245 118.137 45.8891 117.723C44.763 117.08 43.384 117.723 42.4877 118.482C40.9479 119.769 39.7988 121.653 37.5466 120.435C36.3745 119.792 35.3862 118.734 34.0763 118.413C32.9501 118.137 31.9159 118.551 31.0426 119.24C29.9395 120.09 28.8593 121.745 27.2965 121.584C25.5039 121.4 24.6766 119.194 22.861 118.964C21.7348 118.803 20.6317 119.539 20.6087 120.711C20.5857 121.125 21.2752 121.125 21.2982 120.688Z" fill="#E8E8E8"/>
<path d="M39.1554 115.401C39.5461 114.114 40.6263 113.241 41.9363 112.988C42.5798 112.85 43.2693 112.873 43.8898 113.103C44.6252 113.379 45.0159 113.93 45.5905 114.413C47.1992 115.792 48.808 114.62 50.2558 113.609C51.1981 112.942 52.3472 112.115 53.4274 113.034C54.0939 113.609 54.4386 114.597 55.3349 114.896C56.3231 115.194 56.9207 114.413 57.5182 113.792C59.012 112.207 60.9655 113.287 62.4594 114.298C62.8271 114.551 63.1718 113.953 62.8041 113.701C61.678 112.942 60.2761 112.092 58.8512 112.253C58.3226 112.322 57.8629 112.505 57.4722 112.85C56.8058 113.402 56.1852 114.781 55.1281 113.93C54.2777 113.264 53.9789 112.138 52.7839 111.931C51.8186 111.77 50.9223 112.345 50.1409 112.85C49.2446 113.448 48.0266 114.62 46.8315 114.321C46.0501 114.114 45.6134 113.287 44.9699 112.85C44.5333 112.551 44.0277 112.345 43.4761 112.253C41.3617 111.885 39.1095 113.103 38.5119 115.194C38.3511 115.631 39.0176 115.815 39.1554 115.401Z" fill="#E8E8E8"/>
<path d="M174.107 28.0922C173.877 27.0121 175.141 26.5754 175.899 26.7593C176.451 26.8742 176.957 27.2879 177.37 27.6326C178.014 28.1842 178.611 28.8277 179.347 29.2643C180.634 30.0227 181.852 29.7699 183.024 28.9656C183.667 28.5289 184.288 27.9543 185.023 27.7015C185.989 27.3568 186.862 27.6786 187.712 28.1612C188.838 28.8047 189.873 29.7469 191.206 29.9538C192.561 30.1606 193.642 29.4022 194.607 28.5289C196.009 27.2649 197.227 26.2996 199.203 26.9661C201.731 27.8164 204.144 30.1147 206.81 28.2761C207.546 27.7705 208.166 27.0121 209.017 26.7133C210.281 26.2766 210.717 27.4947 211.591 28.0922C212.878 29.0115 214.578 28.8277 215.796 27.8854C216.141 27.6096 215.659 27.127 215.314 27.4028C214.28 28.2071 212.786 28.2301 211.775 27.3568C211.223 26.8742 210.878 26.2537 210.166 26.0009C208.81 25.5412 207.684 26.7823 206.718 27.5177C203.593 29.8389 200.95 25.9089 197.732 26.0009C196.239 26.0468 195.204 27.081 194.17 28.0233C193.504 28.6208 192.745 29.2643 191.78 29.2873C190.861 29.2873 190.056 28.7817 189.321 28.3221C188.172 27.5866 186.954 26.6673 185.529 26.8742C183.943 27.081 183.024 28.6208 181.507 29.0115C179.186 29.6091 177.968 26.2996 175.784 26.0468C174.474 25.8859 173.187 26.9431 173.486 28.2991C173.532 28.7128 174.199 28.5289 174.107 28.0922Z" fill="#E8E8E8"/>
<path d="M199.134 34.3669C200.03 32.5743 202.145 32.3215 203.891 32.919C205.27 33.3786 206.557 34.6886 208.028 34.8265C209.269 34.9184 210.028 33.9992 210.901 33.2867C212.533 31.9537 214.325 32.2065 216.072 33.1258C217.06 33.6544 218.186 34.3439 219.358 34.183C220.622 33.9992 221.128 32.919 222.116 32.2985C223.334 31.5401 224.667 32.9879 225.977 33.0569C227.172 33.1258 228.299 32.6202 229.103 31.7699C229.402 31.4481 228.919 30.9655 228.62 31.2873C227.954 31.9767 227.103 32.3904 226.138 32.3904C225.173 32.3674 224.598 31.8388 223.748 31.4941C222.898 31.1494 222.162 31.3562 221.473 31.9308C220.898 32.3904 220.439 33.0569 219.749 33.3557C218.761 33.7693 217.796 33.2637 216.922 32.8041C215.773 32.2065 214.647 31.586 213.291 31.655C212.073 31.7239 211.062 32.2525 210.166 33.0339C209.223 33.8613 208.396 34.4588 207.109 33.8153C206.351 33.4476 205.661 32.942 204.88 32.5972C202.696 31.632 199.755 31.632 198.56 34.0451C198.353 34.4128 198.927 34.7576 199.134 34.3669Z" fill="#E8E8E8"/>
<path d="M41.8904 167.501C42.9476 166.651 44.4644 165.571 45.7744 166.605C46.326 167.042 46.6707 167.708 47.2682 168.099C48.1186 168.673 49.0379 168.536 49.7963 167.892C50.7845 167.065 51.6349 165.088 53.1976 165.617C54.4157 166.008 55.1281 167.363 56.2313 167.961C58.7593 169.34 59.8625 166.283 61.5632 165.157C63.3098 164.008 64.1372 166.444 65.2863 167.249C66.1596 167.846 67.3547 168.007 67.9982 167.065C68.251 166.697 67.6534 166.352 67.4006 166.72C66.2975 168.329 64.1372 164.652 63.1489 164.284C62.2067 163.939 61.3104 164.399 60.6209 165.042C59.7705 165.847 59.0581 167.249 57.84 167.57C56.3922 167.938 55.312 166.26 54.3008 165.502C53.5424 164.927 52.6461 164.652 51.7498 165.042C50.6696 165.525 50.164 166.697 49.2677 167.409C47.7049 168.65 46.8316 166.283 45.5905 165.686C44.0737 164.973 42.488 166.076 41.3618 166.996C41.0631 167.295 41.5457 167.777 41.8904 167.501Z" fill="#E8E8E8"/>
<path d="M192.975 157.872C193.136 156.493 194.837 156.677 195.687 157.137C196.307 157.458 196.813 157.941 197.388 158.332C198.33 158.975 199.456 159.458 200.605 159.044C201.938 158.539 202.719 157.298 204.144 156.907C205.937 156.401 207.385 157.022 208.994 157.734C209.936 158.148 210.993 158.516 212.004 158.079C213.107 157.619 213.774 156.148 215.13 156.516C216.899 156.999 217.888 159.113 219.91 158.837C220.347 158.791 220.347 158.102 219.91 158.148C217.727 158.424 216.578 155.413 214.348 155.781C212.969 155.988 212.372 157.642 210.901 157.596C209.315 157.55 207.959 156.286 206.374 156.056C204.995 155.873 203.57 156.171 202.398 156.93C201.777 157.321 201.295 157.918 200.651 158.24C199.387 158.906 198.261 158.125 197.273 157.389C196.284 156.677 195.204 155.827 193.894 156.125C192.998 156.332 192.377 156.953 192.263 157.872C192.24 158.309 192.929 158.309 192.975 157.872Z" fill="#E8E8E8"/>
<path d="M288.88 53.4421C288.926 52.4538 290.144 52.224 290.948 52.3389C291.775 52.4538 292.511 52.9824 293.269 53.3042C294.418 53.8098 295.43 53.8098 296.556 53.2582C297.383 52.8675 298.118 52.3849 299.038 52.247C300.072 52.1091 301.037 52.3389 301.957 52.8675C303.06 53.511 304.025 54.3154 305.358 54.3843C307.679 54.5222 309.656 52.7526 311.632 51.7644C313.172 50.983 314.597 50.7761 316.137 51.6495C317.309 52.293 318.458 53.2352 319.883 53.0744C321.491 52.8905 321.928 51.0979 323.445 50.6612C325.214 50.1556 327.191 50.96 328.777 51.6724C329.167 51.8563 329.535 51.2588 329.121 51.0749C326.869 50.0637 323.606 48.8916 321.583 50.983C320.779 51.8103 320.227 52.6377 318.894 52.293C317.814 52.0172 316.964 51.2358 315.976 50.7761C314.85 50.2476 313.677 50.2476 312.505 50.6382C310.046 51.4656 307.564 54.2694 304.783 53.6029C303.106 53.1893 301.98 51.7414 300.164 51.5346C299.497 51.4656 298.808 51.5116 298.164 51.7184C297.268 51.9942 296.533 52.6147 295.659 52.8675C293.729 53.4191 292.327 51.5116 290.442 51.5805C289.316 51.6265 288.236 52.201 288.167 53.3961C288.167 53.9017 288.857 53.9017 288.88 53.4421Z" fill="#E8E8E8"/>
<path d="M56.3922 148.152C57.8392 148.152 59.0122 146.979 59.0122 145.532C59.0122 144.085 57.8392 142.912 56.3922 142.912C54.9452 142.912 53.7722 144.085 53.7722 145.532C53.7722 146.979 54.9452 148.152 56.3922 148.152Z" fill="#0B8224"/>
<path d="M197.709 62.2897C199.423 62.2897 200.812 60.9006 200.812 59.1871C200.812 57.4736 199.423 56.0845 197.709 56.0845C195.996 56.0845 194.607 57.4736 194.607 59.1871C194.607 60.9006 195.996 62.2897 197.709 62.2897Z" fill="#0B8224"/>
<path d="M294.625 151.392C295.514 151.392 296.234 150.672 296.234 149.783C296.234 148.895 295.514 148.174 294.625 148.174C293.737 148.174 293.016 148.895 293.016 149.783C293.016 150.672 293.737 151.392 294.625 151.392Z" fill="#0B8224"/>
<path d="M317.745 31.9995C319.345 31.9995 320.641 30.703 320.641 29.1038C320.641 27.5045 319.345 26.208 317.745 26.208C316.146 26.208 314.85 27.5045 314.85 29.1038C314.85 30.703 316.146 31.9995 317.745 31.9995Z" fill="#0B8224"/>
<path d="M45.4525 43.6512C46.7345 43.6512 47.7737 42.6119 47.7737 41.33C47.7737 40.048 46.7345 39.0088 45.4525 39.0088C44.1706 39.0088 43.1313 40.048 43.1313 41.33C43.1313 42.6119 44.1706 43.6512 45.4525 43.6512Z" fill="#0B8224"/>
<path d="M52.462 53.2346C53.5409 53.2346 54.4155 52.36 54.4155 51.2811C54.4155 50.2022 53.5409 49.3276 52.462 49.3276C51.3831 49.3276 50.5085 50.2022 50.5085 51.2811C50.5085 52.36 51.3831 53.2346 52.462 53.2346Z" fill="#161616"/>
<path d="M50.1181 156.08C51.4128 156.08 52.4623 155.03 52.4623 153.736C52.4623 152.441 51.4128 151.392 50.1181 151.392C48.8235 151.392 47.7739 152.441 47.7739 153.736C47.7739 155.03 48.8235 156.08 50.1181 156.08Z" fill="#161616"/>
<path d="M304.163 37.8139C305.089 37.8139 305.84 37.0628 305.84 36.1362C305.84 35.2096 305.089 34.4585 304.163 34.4585C303.236 34.4585 302.485 35.2096 302.485 36.1362C302.485 37.0628 303.236 37.8139 304.163 37.8139Z" fill="#161616"/>
<path d="M188.609 141.992C189.764 141.992 190.7 141.055 190.7 139.9C190.7 138.745 189.764 137.809 188.609 137.809C187.454 137.809 186.517 138.745 186.517 139.9C186.517 141.055 187.454 141.992 188.609 141.992Z" fill="#161616"/>
<path d="M288.213 161.228C289.254 161.228 290.098 160.384 290.098 159.344C290.098 158.303 289.254 157.459 288.213 157.459C287.172 157.459 286.329 158.303 286.329 159.344C286.329 160.384 287.172 161.228 288.213 161.228Z" fill="#161616"/>
<path d="M284.1 99.0847C284.835 98.3723 285.662 97.6139 286.674 97.3381C287.938 96.9933 288.443 97.8207 289.454 98.3033C290.374 98.74 291.247 98.4182 292.074 97.9586C292.626 97.6368 293.178 97.2232 293.798 97.0623C294.786 96.8095 295.246 97.5219 295.889 98.0735C296.671 98.74 297.544 98.8319 298.532 98.5102C299.682 98.1425 300.992 97.0163 302.256 97.407C303.451 97.7747 303.864 99.2686 305.266 99.3375C306.461 99.3835 307.427 98.4412 308.346 97.8437C310.345 96.5567 312.207 97.5449 313.999 98.717C314.367 98.9698 314.712 98.3723 314.344 98.1195C313.057 97.2461 311.54 96.3039 309.909 96.4877C308.415 96.6486 307.472 97.8437 306.162 98.4182C304.347 99.2226 303.726 96.8784 302.118 96.6486C300.9 96.4877 299.773 97.2691 298.693 97.7058C297.728 98.0965 296.993 98.0965 296.188 97.384C295.775 97.0163 295.453 96.6026 294.901 96.3958C293.798 96.0051 292.787 96.7635 291.868 97.2921C290.902 97.8437 290.259 98.0046 289.271 97.3611C288.719 96.9933 288.305 96.6486 287.616 96.5797C286.053 96.4188 284.697 97.6139 283.663 98.6251C283.295 98.9009 283.778 99.4065 284.1 99.0847Z" fill="#161616"/>
<path d="M30.2615 201.194C31.1348 200.137 32.238 200.206 33.2952 200.873C33.8697 201.217 34.3293 201.516 35.0188 201.47C36.2369 201.378 37.1562 200.39 38.1674 199.838C39.2475 199.241 39.96 199.471 40.8563 200.298C41.3389 200.758 41.7986 201.217 42.465 201.378C43.6141 201.631 44.6024 200.873 45.4757 200.229C46.0962 199.769 46.7397 199.218 47.4981 199.057C48.4174 198.85 49.1988 199.333 49.9572 199.746C51.1753 200.39 52.3244 200.781 53.5884 199.999C54.1859 199.631 54.6686 199.103 55.2431 198.712C56.1854 198.092 57.0357 198.23 58.0469 198.528C59.242 198.873 60.4371 199.31 61.4713 198.413C61.816 198.115 61.3104 197.632 60.9887 197.931C59.7246 198.988 57.6103 197.356 56.1164 197.609C54.6456 197.862 53.9102 199.379 52.5312 199.746C50.8765 200.16 49.5665 198.299 47.9118 198.344C46.6248 198.367 45.6366 199.31 44.6713 199.999C43.9589 200.505 43.1085 201.056 42.2122 200.597C41.5687 200.252 41.178 199.586 40.5805 199.195C39.4774 198.482 38.3742 198.919 37.363 199.563C36.8344 199.907 36.3518 200.298 35.7772 200.574C34.6511 201.102 34.0765 200.436 33.1113 199.976C31.9392 199.402 30.5833 199.769 29.7789 200.758C29.5031 201.056 29.9857 201.539 30.2615 201.194Z" fill="#161616"/>
<path d="M174.038 17.2223C174.727 18.3254 175.876 19.0149 177.163 19.1068C178.864 19.2217 179.576 18.1645 180.978 17.498C182.679 16.6937 183.989 18.7621 185.759 18.5093C187.046 18.3254 188.034 17.3372 189.091 16.6477C189.85 16.1421 190.677 15.7744 191.596 16.0272C192.355 16.211 192.998 16.6937 193.665 17.0614C194.768 17.6819 195.917 18.0037 197.02 17.2223C197.755 16.7167 198.238 15.7974 199.157 15.5675C200.467 15.2228 201.685 16.28 202.742 16.8775C203.961 17.59 205.454 18.0956 206.718 17.2223C207.086 16.9695 206.741 16.3719 206.374 16.6247C204.604 17.8658 202.651 15.7974 201.065 15.1539C199.824 14.6483 198.698 14.7632 197.709 15.6595C196.951 16.326 196.399 17.1763 195.25 16.9924C194.515 16.8775 193.848 16.3719 193.228 16.0042C192.217 15.4297 191.159 15.039 190.01 15.4067C188.838 15.7974 187.965 16.6937 186.931 17.3142C186.241 17.7279 185.506 18.0037 184.724 17.7508C184.012 17.544 183.46 17.0154 182.771 16.7626C181.3 16.234 180.427 17.1533 179.255 17.8887C177.692 18.854 175.67 18.4403 174.658 16.8775C174.383 16.4868 173.785 16.8316 174.038 17.2223Z" fill="#0B8224"/>
<path d="M235.906 75.7117C234.664 75.6428 233.63 76.2863 230.62 79.297C227.586 82.3306 226.138 84.1692 223.886 86.6972C223.081 87.6165 223.702 86.8811 215.451 94.9708C214.716 95.7062 213.383 96.9932 211.269 97.8895C210.602 98.1653 209.062 98.7858 207.201 98.7629C206.052 98.7399 204.098 98.4641 200.766 96.051C199.801 95.3385 197.64 93.6838 192.791 87.5476C191.826 86.3295 189.964 83.9394 187.85 81.0896C186.402 79.1131 184.448 77.4814 183.23 75.344C182.748 74.5167 181.943 72.9539 180.587 72.7241C180.45 72.7011 179.714 72.6092 179.323 73.0228C178.818 73.5744 179.094 74.7925 179.599 75.5509C180.105 76.3323 180.656 76.3782 180.955 77.1826C181.139 77.6422 181.116 78.0789 181.07 78.3547C178.956 77.1366 177.117 76.2403 175.761 75.5968C173.21 74.4018 171.785 73.9421 170.452 73.6204C167.097 72.816 165.879 73.3216 165.258 73.7583C165.097 73.8732 164.178 74.4937 164.27 75.1372C164.385 75.9416 166.017 76.3093 167.258 76.608C169.28 77.0907 170.613 76.9758 170.636 77.1826C170.659 77.4354 168.476 77.6422 165.58 78.8603C164.408 79.3659 163.236 79.9634 162.386 81.1815C162.271 81.3654 161.42 82.5374 161.765 82.9511C162.018 83.2729 162.937 83.089 164.017 82.5145C163.925 82.6524 163.397 83.5027 163.742 84.0773C164.109 84.7208 165.304 84.5829 165.948 84.5139C167.12 84.376 167.809 83.9853 168.476 83.7095C169.372 83.3418 170.774 82.9971 172.819 83.2729C171.027 84.0083 169.671 84.8127 168.729 85.4332C166.706 86.7662 166.43 87.3867 166.43 87.8923C166.43 88.3979 166.706 89.0874 167.235 89.2712C168.338 89.6619 169.188 87.4556 171.303 87.2948C171.946 87.2488 172.59 87.4786 173.831 87.9383C175.416 88.5358 176.336 89.1333 176.979 89.4781C178.151 90.0986 179.99 90.6731 182.886 90.3284C186.103 94.0515 189.045 96.9013 191.182 98.8778C196.215 103.474 198.812 105.795 203.087 107.22C206.626 108.392 209.568 108.369 211.361 108.346C218.071 108.254 222.944 105.772 225.196 104.577C227.862 103.175 232.734 100.624 236.365 95.1087C237.928 92.7415 238.732 90.2365 240.341 85.2264C240.801 83.7785 241.122 82.6294 240.893 81.2045C240.433 78.6305 238.319 75.8496 235.906 75.7117Z" fill="white"/>
<path opacity="0.15" d="M166.637 88.7199C166.408 88.2143 167.534 87.226 167.718 87.0881C169.326 85.6862 171.349 85.4334 172.268 85.3415C174.612 85.1117 177.646 84.8129 180.955 85.8931C187.459 87.9845 187.482 92.8337 194.63 98.3724C196.882 100.119 203.041 104.899 211.016 104.669C216.44 104.509 220.278 102.118 224.369 99.5675C228.23 97.1543 234.711 92.3511 240.318 83.5029C240.318 84.4682 240.272 85.8241 239.928 87.4099C239.031 91.7535 236.825 94.6263 235.446 96.3729C230.689 102.394 224.667 104.922 222.3 105.888C219.726 106.945 216.164 108.37 211.338 108.347C203.225 108.301 197.388 104.164 195.779 102.992C193.963 101.659 191.481 99.0848 186.471 93.9368C184.747 92.1672 183.368 90.6963 182.449 89.7081C182.013 89.9839 181.3 90.3746 180.404 90.4435C178.634 90.5814 177.853 89.4093 174.957 88.3062C173.118 87.6167 172.222 87.272 171.257 87.5478C170.062 87.9155 169.602 88.8578 168.016 89.0186C167.81 89.0186 166.844 89.1106 166.637 88.7199Z" fill="#7A7A7A"/>
<path d="M235.722 75.4132C231.079 77.5965 227.747 81.5724 224.507 85.4104C220.852 89.7311 216.739 94.2586 211.82 97.1773C205.73 100.786 200.306 95.5915 196.422 91.2939C192.355 86.7894 188.999 81.7563 185.161 77.0909C184.127 75.8039 183.024 74.5629 181.875 73.3908C181.254 72.7702 180.427 71.9199 179.462 72.4485C178.795 72.8162 178.519 73.7355 178.657 74.4479C178.956 75.9877 180.955 76.907 180.68 78.5847C180.611 79.0214 181.277 79.2052 181.346 78.7686C181.507 77.8033 181.162 77.0449 180.588 76.2635C180.243 75.8039 179.806 75.3902 179.553 74.8616C179.232 74.1722 179.025 72.4945 180.84 73.3218C181.139 73.4597 181.461 73.9423 181.691 74.1722C183.759 76.3325 185.621 78.6996 187.436 81.0898C190.838 85.6173 194.216 90.1677 198.215 94.1896C201.639 97.6599 206.466 100.602 211.338 98.2345C213.613 97.1313 215.658 95.3157 217.543 93.661C219.703 91.7765 221.703 89.7311 223.587 87.5708C227.31 83.2731 230.804 78.4928 236.09 76.0107C236.48 75.8269 236.136 75.2293 235.722 75.4132Z" fill="#161616"/>
<path d="M173.601 78.4456C172.153 77.3195 170.521 76.6071 168.683 76.4002C167.695 76.2853 166.614 76.3543 165.672 75.9406C165.075 75.6648 164.96 75.6188 164.937 74.9064C164.914 74.1939 164.96 74.2399 165.557 74.0331C166.224 73.8032 166.913 73.7113 167.603 73.6883C169.97 73.5964 172.314 74.4008 174.451 75.366C176.681 76.3543 178.795 77.5723 180.817 78.9053C181.185 79.1581 181.53 78.5605 181.162 78.3077C178.657 76.653 176.014 75.1822 173.21 74.102C170.751 73.1597 167.947 72.5622 165.373 73.3666C164.753 73.5734 164.017 73.8722 163.902 74.6076C163.742 75.5269 164.638 76.2393 165.373 76.5611C166.362 76.9978 167.465 76.9518 168.522 77.0667C170.223 77.2276 171.785 77.8711 173.118 78.9053C173.463 79.204 173.946 78.7214 173.601 78.4456Z" fill="#161616"/>
<path d="M170.544 76.8839C168.522 77.2056 166.568 77.8721 164.799 78.9293C163.558 79.6647 161.282 80.9747 161.374 82.6754C161.466 84.7438 163.581 83.2959 164.5 82.8593C166.798 81.7331 169.303 81.0896 171.854 80.9058C172.291 80.8828 172.291 80.1933 171.854 80.2163C170.36 80.3312 168.866 80.561 167.419 80.9977C166.637 81.2275 165.902 81.5033 165.143 81.8251C164.5 82.1008 163.741 82.7214 163.075 82.8593C162.615 83.204 162.386 82.8593 162.363 81.8251C162.523 81.5952 162.73 81.3654 162.937 81.1816C163.282 80.8598 163.673 80.561 164.04 80.2853C164.661 79.8486 165.304 79.4579 165.971 79.1132C167.465 78.3548 169.073 77.8491 170.728 77.5963C171.165 77.4814 170.981 76.8149 170.544 76.8839Z" fill="#161616"/>
<path d="M164.637 81.94C163.856 82.6754 162.385 85.2494 164.454 85.3413C164.936 85.3643 165.419 85.0885 165.855 84.9047C166.476 84.6519 167.12 84.422 167.763 84.2382C168.475 84.0313 169.211 83.8705 169.946 83.7326C170.59 83.6177 172.061 83.227 172.658 83.6406C173.026 83.8934 173.371 83.2959 173.003 83.0431C171.969 82.3077 169.671 83.0431 168.567 83.2959C167.648 83.5028 166.752 83.8015 165.855 84.1463C165.465 84.3071 164.155 85.0885 164.155 83.8245C164.155 83.3419 164.798 82.6984 165.12 82.3996C165.465 82.1238 164.982 81.6412 164.637 81.94Z" fill="#161616"/>
<path d="M172.842 83.1583C170.82 83.8938 168.637 84.6981 167.143 86.3069C166.43 87.0653 164.868 89.6623 167.028 89.6393C168.108 89.6163 169.142 88.766 170.085 88.3063C171.762 87.5249 173.394 88.0076 174.957 88.789C177.393 90.007 179.461 90.9952 182.265 90.5586C182.702 90.4896 182.518 89.8231 182.081 89.8921C179.415 90.3058 177.439 89.2256 175.118 88.0995C173.624 87.3641 171.969 86.8584 170.314 87.456C169.533 87.7548 168.843 88.2374 168.085 88.5821C167.786 88.743 167.465 88.8349 167.143 88.9268C166.66 88.5361 166.568 88.1455 166.89 87.7548C167.028 87.3181 167.534 86.8814 167.855 86.5597C169.28 85.1807 171.211 84.4683 173.026 83.8248C173.44 83.6869 173.256 83.0204 172.842 83.1583Z" fill="#161616"/>
<path d="M182.357 90.2601C186.149 94.5118 190.148 98.6256 194.446 102.326C198.192 105.566 202.329 107.887 207.293 108.508C216.877 109.68 227.448 105.428 234.021 98.4877C237.744 94.5577 240.249 89.5706 240.87 84.1698C240.916 83.7331 240.226 83.7331 240.18 84.1698C239.077 93.8912 231.769 101.406 223.082 105.198C218.623 107.152 213.728 108.278 208.833 107.979C203.616 107.658 199.18 105.474 195.227 102.119C190.792 98.3498 186.701 94.1211 182.817 89.7774C182.564 89.4327 182.059 89.9383 182.357 90.2601Z" fill="#161616"/>
<path d="M105.964 94.2808C104.999 94.8094 103.689 95.6827 102.402 97.0156C96.8635 102.83 98.1045 111.334 98.3114 112.735C98.6791 115.263 99.7592 122.641 106.171 126.249C110.239 128.547 114.422 128.156 116.146 127.904C115.801 125.491 115.364 123.008 114.836 120.434C112.698 110.322 109.435 101.566 105.964 94.2808Z" fill="#161616" stroke="#161616" stroke-width="0.689465" stroke-miterlimit="10"/>
<path d="M187.092 115.654C194.961 115.654 201.341 109.275 201.341 101.405C201.341 93.5357 194.961 87.1562 187.092 87.1562C179.222 87.1562 172.843 93.5357 172.843 101.405C172.843 109.275 179.222 115.654 187.092 115.654Z" fill="white" stroke="#161616" stroke-width="0.689465" stroke-miterlimit="10"/>
<path d="M186.172 91.3168C186.172 92.5578 186.172 93.7988 186.172 95.0399C186.172 95.4765 186.862 95.4765 186.862 95.0399C186.862 93.7988 186.862 92.5578 186.862 91.3168C186.862 90.8801 186.172 90.8801 186.172 91.3168Z" fill="#161616"/>
<path d="M189.137 95.2921C187.505 94.4418 185.529 94.5797 184.173 95.9126C183.139 96.9009 182.38 98.9463 183.759 100.003C184.426 100.509 185.345 100.509 186.149 100.417C187.758 100.21 189.574 100.279 190.194 102.118C190.7 103.589 189.895 105.956 188.471 106.714C186.931 107.542 185.207 106.53 183.943 105.68C183.575 105.427 183.231 106.025 183.598 106.278C185.184 107.358 187.367 108.392 189.137 107.105C190.677 105.979 191.481 103.382 190.723 101.635C189.941 99.8656 188.172 99.4519 186.425 99.6817C185.46 99.8196 184.242 99.9575 183.759 98.8314C183.438 98.0959 184.058 97.0387 184.541 96.5102C185.667 95.3381 187.344 95.1542 188.769 95.8896C189.183 96.0965 189.528 95.4989 189.137 95.2921Z" fill="#161616"/>
<path d="M186.931 107.335C186.931 108.37 186.931 109.381 186.931 110.415C186.931 110.852 187.62 110.852 187.62 110.415C187.62 109.381 187.62 108.37 187.62 107.335C187.62 106.899 186.931 106.899 186.931 107.335Z" fill="#161616"/>
<path d="M146.183 78.3773C153.101 78.3773 158.709 72.3065 158.709 64.8178C158.709 57.3291 153.101 51.2583 146.183 51.2583C139.266 51.2583 133.658 57.3291 133.658 64.8178C133.658 72.3065 139.266 78.3773 146.183 78.3773Z" fill="white" stroke="#161616" stroke-width="0.689465" stroke-miterlimit="10"/>
<path d="M116.138 127.913C122.074 126.541 125.099 117.699 122.894 108.164C120.689 98.6296 114.09 92.0131 108.154 93.3857C102.218 94.7583 99.1931 103.6 101.398 113.135C103.603 122.67 110.202 129.286 116.138 127.913Z" fill="white" stroke="#161616" stroke-width="0.689465" stroke-miterlimit="10"/>
<path d="M145.103 54.89C145.103 56.1081 145.103 57.3491 145.103 58.5671C145.103 59.0038 145.792 59.0038 145.792 58.5671C145.792 57.3491 145.792 56.1081 145.792 54.89C145.792 54.4533 145.103 54.4533 145.103 54.89Z" fill="#161616"/>
<path d="M147.448 58.1309C145.862 57.8551 144.276 58.3607 143.173 59.5098C142.391 60.3142 141.265 62.2907 142.483 63.21C143.081 63.6696 144.161 63.6007 144.851 63.6466C146.252 63.7615 148.045 64.0143 148.78 65.3933C150.458 68.5878 144.437 71.2078 143.541 68.1741C143.426 67.7604 142.759 67.9213 142.874 68.358C143.38 70.0816 145.425 70.4264 146.942 69.9667C148.666 69.4381 149.999 67.7834 149.654 65.9219C149.24 63.7386 146.919 63.164 145.034 62.9801C144.713 62.9572 144.391 62.9342 144.069 62.9112C143.426 62.8423 142.759 62.5894 142.69 61.8081C142.644 61.3024 143.242 60.4751 143.564 60.1304C144.506 59.0962 145.908 58.5676 147.287 58.8204C147.7 58.8663 147.884 58.1999 147.448 58.1309Z" fill="#161616"/>
<path d="M145.678 69.9896C145.678 70.6331 145.678 71.2766 145.678 71.9201C145.678 72.3568 146.367 72.3568 146.367 71.9201C146.367 71.2766 146.367 70.6331 146.367 69.9896C146.367 69.5529 145.678 69.5529 145.678 69.9896Z" fill="#161616"/>
<path d="M109.297 99.314C109.733 100.532 110.193 101.773 110.63 102.991C110.791 103.405 111.457 103.221 111.296 102.807C110.86 101.589 110.4 100.348 109.963 99.1302C109.825 98.7165 109.159 98.9003 109.297 99.314Z" fill="#161616"/>
<path d="M113.687 102.325C111.664 102.417 109.78 103.566 108.791 105.358C107.941 106.921 107.711 109.311 109.228 110.552C111.388 112.322 114.1 109.036 116.513 110.208C118.375 111.104 117.8 113.425 116.95 114.85C116.559 115.517 116.054 116.137 115.433 116.574C114.997 116.895 113.411 117.723 112.951 117.056C112.698 116.689 112.101 117.033 112.354 117.401C113.526 119.079 116.284 116.918 117.065 115.884C118.283 114.276 119.294 111.403 117.364 109.909C116.467 109.196 115.249 109.128 114.169 109.334C112.606 109.656 110.239 111.357 109.136 109.38C107.504 106.439 110.814 103.129 113.641 102.991C114.123 102.991 114.123 102.302 113.687 102.325Z" fill="#161616"/>
<path d="M115.502 116.941C116.031 118.228 116.559 119.515 117.065 120.802C117.226 121.216 117.892 121.032 117.731 120.619C117.203 119.332 116.674 118.045 116.168 116.758C115.985 116.344 115.318 116.528 115.502 116.941Z" fill="#161616"/>
<path d="M238.686 240.792C238.778 243.711 238.893 246.653 238.985 249.572C236.71 250.1 233.906 250.95 230.85 252.421C227.609 253.961 224.92 254.375 224.323 256.374C224.185 256.857 224.185 257.271 224.208 257.546C225.311 257.523 226.943 257.454 228.896 257.179C232.114 256.719 234.366 255.961 236.066 255.432C238.503 254.674 241.973 253.708 246.477 252.881C246.385 252.031 246.294 251.18 246.225 250.33C245.903 246.676 245.765 243.183 245.742 239.827C243.398 240.172 241.031 240.471 238.686 240.792Z" fill="black"/>
<path d="M225.771 133.902C225.725 134.891 225.679 136.316 225.61 138.039C225.495 141.119 225.104 152.564 225.288 166.032C225.702 196.644 228.896 222.499 229.747 229.141C230.321 233.691 230.873 237.414 231.218 239.781C232.16 240.264 233.217 240.678 234.389 240.953C241.468 242.723 247.811 238.816 249.856 237.437C249.328 234.082 248.569 229.164 247.811 223.211C246.156 210.41 244.042 193.587 244.157 172.972C244.203 164.239 244.662 152.403 246.409 138.361C247.006 136.775 249.695 129.283 246.754 126.479C243.697 123.583 234.987 125.928 225.771 133.902Z" fill="white"/>
<path opacity="0.17" d="M240.111 142.935C239.836 145.555 239.422 149.99 239.1 155.483C238.595 163.894 237.331 190.6 242.662 226.429C243.191 230.014 243.926 234.633 244.938 240.034C246.569 239.161 248.224 238.288 249.856 237.437C247.052 221.235 245.719 207.491 245.03 197.081C244.432 188.095 244.294 180.901 244.225 176.879C243.972 163.986 244.294 153.024 244.685 144.635C243.168 144.084 241.651 143.509 240.111 142.935Z" fill="#7A7A7A"/>
<path d="M225.426 133.903C224.231 161.597 225.058 189.359 227.977 216.915C228.781 224.591 229.769 232.244 230.896 239.874C230.965 240.311 231.631 240.127 231.562 239.69C227.54 212.387 225.541 184.786 225.587 157.161C225.61 149.416 225.794 141.648 226.115 133.903C226.138 133.467 225.449 133.467 225.426 133.903Z" fill="#161616"/>
<path d="M231.149 240.219C237.4 242.908 244.8 241.92 250.109 237.668C250.454 237.392 249.971 236.91 249.626 237.185C244.57 241.23 237.446 242.195 231.493 239.621C231.08 239.461 230.735 240.058 231.149 240.219Z" fill="#161616"/>
<path d="M244.203 146.313C243.145 170.077 243.973 193.91 246.754 217.535C247.535 224.154 248.454 230.727 249.534 237.3C249.603 237.737 250.27 237.553 250.201 237.116C246.363 213.674 244.432 189.934 244.432 166.17C244.432 159.551 244.593 152.932 244.892 146.313C244.915 145.854 244.226 145.854 244.203 146.313Z" fill="#161616"/>
<path d="M238.273 241.69C238.388 244.309 238.503 246.952 238.641 249.572C238.733 249.457 238.802 249.343 238.893 249.251C235.377 250.078 231.999 251.342 228.827 253.066C227.977 253.525 221.979 256.467 223.955 257.777C225.15 258.581 226.943 258.007 228.184 257.708C230.229 257.202 232.275 256.72 234.32 256.214C238.411 255.226 242.479 254.215 246.57 253.227C246.707 253.204 246.845 253.043 246.822 252.905C246.363 248.561 246.11 244.218 246.087 239.851C246.087 239.414 245.397 239.414 245.397 239.851C245.42 244.218 245.65 248.584 246.133 252.905C246.225 252.79 246.294 252.675 246.386 252.583C243.099 253.387 239.813 254.192 236.549 254.996C233.309 255.778 230.068 256.72 226.805 257.363C226.391 257.455 225.955 257.501 225.541 257.501C225.242 257.501 224.966 257.478 224.69 257.386C224.277 257.065 224.231 256.835 224.622 256.651C224.943 256.145 225.977 255.663 226.483 255.341C227.701 254.537 228.965 253.801 230.252 253.158C233.056 251.733 236.044 250.676 239.1 249.963C239.238 249.94 239.353 249.779 239.353 249.641C239.238 247.021 239.123 244.378 238.985 241.758C238.939 241.253 238.25 241.253 238.273 241.69Z" fill="#161616"/>
<path d="M283.846 237.804C284.789 239.183 285.731 240.585 286.673 241.964C286.168 242.998 285.317 244.63 284.145 246.56C282.169 249.755 281.02 250.881 279.319 253.662C278.537 254.949 277.457 256.902 276.423 259.499C277.136 259.27 278.193 258.856 279.365 258.166C281.686 256.787 282.605 255.363 284.651 253.248C287.455 250.33 287.822 250.835 290.281 248.284C291.499 247.02 293.223 244.998 294.947 242.102C294.625 241.206 294.257 240.286 293.867 239.367C292.901 237.138 291.867 235.115 290.833 233.346C288.512 234.817 286.191 236.31 283.846 237.804Z" fill="black"/>
<path d="M235.768 133.948C234.734 135.189 232.849 137.464 233.424 139.923C233.768 141.417 234.871 142.382 235.584 142.911C236.365 143.187 237.491 143.692 238.503 144.681C239.399 145.577 239.997 146.634 241.306 150.794C242.134 153.437 242.502 154.793 242.685 155.666C243.995 161.71 251.327 184.233 254.222 192.208C260.382 209.237 270.195 226.129 278.492 238.838C280.008 238.747 281.847 238.471 283.846 237.781C289.316 235.874 292.488 231.99 293.844 230.105C292.695 227.669 291.04 224.13 289.109 219.832C280.422 200.32 275.205 184.968 271.367 173.592C263.967 151.69 260.198 137.326 259.37 134.063C258.405 130.317 257.67 127.191 257.141 124.985C254.751 125.399 240.893 127.789 235.768 133.948Z" fill="white"/>
<path opacity="0.15" d="M252.614 129.26C253.464 132.753 254.751 137.947 256.452 144.198C258.658 152.311 264.725 174.006 275.412 201.86C278.767 210.57 283.318 221.878 289.178 234.909C290.741 233.392 292.327 231.875 293.89 230.358C292.373 226.865 290.213 221.786 287.662 215.649C281.847 201.607 277.251 190.53 272.31 176.373C267.437 162.4 264.151 150.978 260.175 137.119C258.336 130.73 256.888 125.399 255.854 121.583C254.797 124.157 253.717 126.709 252.614 129.26Z" fill="#7A7A7A" fill-opacity="0.28"/>
<path d="M257.624 128.799C264.426 155.068 272.907 180.9 283.019 206.065C285.846 213.121 288.833 220.153 291.913 227.117C292.097 227.531 292.694 227.163 292.511 226.772C281.525 201.998 272.125 176.533 264.38 150.54C262.22 143.278 260.175 135.97 258.29 128.616C258.175 128.202 257.509 128.386 257.624 128.799Z" fill="#161616"/>
<path d="M235.492 143.233C238.434 143.808 239.675 146.957 240.479 149.508C241.559 152.932 242.547 156.379 243.582 159.804C245.719 166.905 247.833 174.007 250.017 181.108C254.084 194.277 259.876 206.71 266.495 218.753C270.241 225.602 274.217 232.312 278.193 239.023C278.423 239.414 279.02 239.069 278.79 238.678C271.574 226.475 264.334 214.248 258.451 201.355C252.269 187.796 248.408 173.409 244.11 159.183C242.961 155.414 242.019 151.507 240.617 147.83C239.721 145.509 238.319 143.073 235.676 142.567C235.239 142.498 235.055 143.165 235.492 143.233Z" fill="#161616"/>
<path d="M278.744 239.367C284.812 238.586 290.373 235.46 294.143 230.634C294.418 230.289 293.936 229.807 293.66 230.151C290.029 234.84 284.651 237.942 278.744 238.701C278.308 238.724 278.308 239.413 278.744 239.367Z" fill="#161616"/>
<path d="M291.867 227.118C292.511 228.129 293.062 229.209 293.545 230.312C293.729 230.726 294.326 230.358 294.143 229.967C293.66 228.864 293.108 227.807 292.465 226.773C292.235 226.405 291.638 226.75 291.867 227.118Z" fill="#161616"/>
<path d="M283.548 237.966C284.237 238.885 284.927 239.781 285.616 240.7C286.168 241.413 286.466 241.666 286.076 242.746C285.915 243.205 285.57 243.642 285.317 244.079C284.283 245.825 283.111 247.503 281.939 249.158C279.687 252.398 277.434 255.662 276.079 259.408C275.987 259.638 276.216 259.822 276.4 259.845C278.239 259.982 279.618 258.397 280.859 257.271C282.537 255.731 284.191 254.191 285.8 252.582C289.04 249.388 292.143 246.078 295.108 242.654C295.407 242.309 294.901 241.827 294.625 242.171C291.936 245.274 289.132 248.308 286.214 251.203C284.812 252.605 283.387 253.984 281.939 255.34C281.204 256.007 280.491 256.696 279.733 257.362C278.767 258.236 277.779 259.293 276.4 259.178C276.515 259.316 276.63 259.477 276.722 259.615C278.262 255.317 281.043 251.686 283.594 247.963C284.697 246.354 286.122 244.584 286.811 242.723C287.11 241.918 286.903 241.39 286.421 240.7C285.685 239.666 284.881 238.655 284.099 237.621C283.892 237.276 283.295 237.621 283.548 237.966Z" fill="#161616"/>
<path d="M290.534 233.506C292.143 236.287 293.522 239.183 294.625 242.193C294.786 242.607 295.453 242.423 295.292 242.01C294.166 238.93 292.787 235.988 291.132 233.161C290.902 232.771 290.305 233.139 290.534 233.506Z" fill="#161616"/>
<path d="M235.768 74.6994C231.907 77.5263 230.344 81.1115 228.735 84.7427C226.276 90.2814 225.932 94.8778 225.357 103.243C225.242 105.036 225.058 107.748 225.104 120.733C225.127 126.134 225.15 130.615 225.173 133.718C227.173 134.453 229.425 135.097 231.93 135.464C244.225 137.28 254.314 131.649 258.543 128.914C257.9 125.26 257.256 121.583 256.613 117.929C256.82 112.206 257.532 107.656 258.13 104.599C259.21 99.1755 260.29 96.6015 261.439 89.7528C262.772 81.686 262.197 79.6406 261.439 78.1698C259.508 74.3777 255.601 72.9068 253.717 72.1944C247.879 69.9651 240.87 70.9534 235.768 74.6994Z" fill="#0B8224"/>
<path d="M261.117 79.3653C259.623 79.8939 258.704 80.9971 257.854 82.2841C255.739 85.4786 254.912 88.5122 254.59 89.7073C252.981 95.5218 252.2 98.4405 250.844 101.198C249.741 103.474 248.063 106.852 244.524 109.61C242.456 111.242 240.64 111.931 237.009 113.333C234.136 114.436 231.171 115.562 227.149 115.861C224.346 116.068 222.001 115.815 220.393 115.539C216.968 114.712 214.647 113.448 213.084 112.368C211.843 111.494 210.212 110.138 208.534 110.575C208.304 110.644 207.477 110.874 207.316 111.448C207.109 112.23 208.166 113.172 209.269 114.16C209.844 114.666 210.349 115.057 210.694 115.286C208.534 116.275 206.741 117.217 205.408 117.929C200.904 120.366 199.088 121.859 198.399 122.457C197.916 122.848 196.629 123.261 196.422 124.295C196.33 124.755 196.445 125.376 196.813 125.582C197.204 125.812 197.686 125.468 199.019 124.824C199.778 124.456 200.421 124.204 200.858 124.02C201.593 124.364 202.444 124.709 203.386 124.985C205.638 125.628 207.638 125.697 209.108 125.628C208.235 126.341 207.477 126.892 206.971 127.26C205.546 128.294 204.857 128.639 204.788 129.329C204.742 129.765 204.926 130.271 205.293 130.501C205.983 130.937 207.132 130.271 207.798 129.88C209.614 128.846 211.682 128.294 213.544 127.306C215.084 126.479 217.313 125.307 220.186 123.951C225.242 123.238 229.034 122.71 230.964 122.434C233.492 122.089 239.169 121.285 246.11 119.745C248.753 119.147 250.89 118.619 253.303 117.148C253.832 116.826 256.061 115.447 258.267 112.85C260.382 110.368 261.37 108.093 262.565 105.266C263.898 102.164 264.518 99.7045 265.139 97.3833C266.127 93.6143 266.449 91.0632 266.541 90.2819C266.771 88.4433 266.977 85.8923 266.403 82.8816C265.989 80.6983 265.484 79.9629 264.817 79.5262C263.369 78.538 261.462 79.2274 261.117 79.3653Z" fill="white"/>
<path opacity="0.14" d="M264.817 79.5259C264.564 81.939 264.105 85.3174 263.231 89.2933C261.99 94.9929 260.956 99.6123 258.681 103.68C253.74 112.413 244.386 115.861 240.824 117.171C236.802 118.665 230.895 119.722 219.106 121.836C219.106 121.836 218.14 122.02 209.108 125.628C208.626 125.812 206.695 126.616 205.5 128.524C205.316 128.823 204.604 129.926 204.972 130.362C205.385 130.868 206.994 130.248 207.821 129.903C211.498 128.386 216.578 125.858 220.209 123.973C224.208 123.399 227.471 122.962 229.677 122.663C241.743 121.078 245.236 120.894 250.2 118.619C252.315 117.653 254.682 116.55 257.095 114.206C260.037 111.379 261.232 108.483 263.002 104.232C264.909 99.6353 265.507 96.2799 266.38 91.4077C266.908 88.397 267.115 86.2826 266.518 83.7776C266.104 81.893 265.392 80.4681 264.817 79.5259Z" fill="#7A7A7A"/>
<path d="M211.062 114.873C210.464 114.528 209.89 114.183 209.338 113.77C209.04 113.54 208.741 113.31 208.465 113.057C207.913 112.552 207.936 112.69 208.028 111.839C208.051 111.586 208.074 111.334 208.12 111.104C208.58 110.874 209.063 110.851 209.545 111.012C209.867 111.104 210.189 111.265 210.51 111.403C211.177 111.724 211.82 112.069 212.464 112.414C214.647 113.586 216.831 114.85 219.221 115.585C224.254 117.102 229.586 116.114 234.481 114.574C239.031 113.126 243.72 111.403 247.029 107.817C249.994 104.623 251.717 100.509 253.027 96.3952C254.406 92.0975 255.073 87.3632 257.463 83.4792C258.658 81.5027 261.439 78.2163 264.105 79.5033C266.518 80.6754 266.426 84.95 266.403 87.1793C266.357 92.5112 264.863 97.889 263.117 102.899C261.6 107.22 259.531 111.54 256.13 114.666C251.74 118.711 245.719 119.538 240.088 120.549C233.493 121.722 226.897 122.848 220.232 123.606C219.795 123.652 219.795 124.341 220.232 124.296C226.506 123.56 232.734 122.526 238.939 121.446C244.386 120.48 250.362 119.86 254.958 116.505C258.796 113.724 261.232 109.541 262.979 105.22C265.047 100.072 266.656 94.4417 267.047 88.88C267.276 85.5016 267.184 76.6075 261.416 78.8828C256.957 80.6294 255.211 86.283 254.039 90.4658C252.706 95.315 251.419 100.279 248.684 104.554C247.213 106.829 245.351 108.806 243.03 110.23C240.479 111.816 237.56 112.85 234.711 113.77C231.401 114.85 227.954 115.677 224.438 115.654C220.829 115.631 217.704 114.436 214.555 112.758C213.199 112.023 211.866 111.219 210.441 110.621C209.476 110.207 208.304 109.932 207.431 110.713C205.385 112.552 209.43 114.781 210.671 115.47C211.085 115.7 211.43 115.103 211.062 114.873Z" fill="#161616"/>
<path d="M210.51 114.988C207.707 116.252 204.995 117.677 202.398 119.309C201.088 120.113 199.824 120.986 198.583 121.883C197.778 122.457 196.537 123.124 196.124 124.089C195.894 124.617 195.963 125.33 196.445 125.721C197.25 126.341 198.307 125.56 199.019 125.192C201.846 123.698 204.719 122.296 207.638 121.032C208.051 120.848 207.684 120.251 207.293 120.435C205.11 121.4 202.926 122.411 200.789 123.491C199.801 123.997 198.698 124.87 197.617 125.123C197.089 125.261 196.721 125.123 196.767 124.548C196.79 124.158 196.997 123.951 197.296 123.698C197.801 123.238 198.376 122.871 198.927 122.457C202.65 119.745 206.649 117.447 210.855 115.562C211.269 115.402 210.924 114.804 210.51 114.988Z" fill="#161616"/>
<path d="M200.766 124.342C203.593 124.893 206.42 124.549 209.017 123.308C209.407 123.124 209.063 122.526 208.672 122.71C206.236 123.859 203.593 124.181 200.95 123.675C200.513 123.606 200.329 124.25 200.766 124.342Z" fill="#161616"/>
<path d="M202.306 124.71C204.259 126.02 206.581 126.411 208.879 125.859C209.315 125.744 209.132 125.078 208.695 125.193C206.581 125.721 204.466 125.331 202.651 124.113C202.283 123.883 201.938 124.48 202.306 124.71Z" fill="#161616"/>
<path d="M208.948 125.307C208.006 125.973 207.109 126.686 206.213 127.421C205.592 127.95 204.65 128.524 204.42 129.352C204.282 129.88 204.42 130.409 204.903 130.685C205.569 131.075 206.558 130.639 207.201 130.432C211.89 128.915 216.233 126.272 220.6 123.997C220.99 123.79 220.646 123.192 220.255 123.399C217.106 125.054 213.981 126.778 210.763 128.272C209.913 128.662 209.063 129.03 208.189 129.352C207.569 129.582 206.443 130.156 205.776 130.11C204.145 129.972 206.512 128.042 206.856 127.766C207.638 127.122 208.465 126.502 209.293 125.881C209.637 125.652 209.293 125.054 208.948 125.307Z" fill="#161616"/>
<path d="M239.951 39.7213C238.089 40.5946 236.802 42.2033 235.63 43.6512C235.033 44.3866 233.355 46.57 232.275 49.9024C231.953 50.9136 230.298 56.1995 232.091 62.2898C233.01 65.3923 234.343 67.0241 234.642 67.3918C235.86 68.8627 237.193 69.736 238.089 70.2416C238.641 70.2875 239.284 70.2875 239.951 70.2416C241.192 70.1497 242.249 69.9198 243.099 69.667C243.421 70.4484 243.858 71.3217 244.432 72.264C245.237 73.574 246.087 74.5852 246.845 75.3666C247.994 74.7691 249.511 73.8498 251.143 72.4709C252.453 71.3447 255.257 68.9086 257.141 64.6799C257.785 63.232 259.394 59.1182 258.75 53.7864C258.566 52.3385 258.291 50.0403 256.958 47.6042C253.602 41.5369 245.237 37.2622 239.951 39.7213Z" fill="white"/>
<path opacity="0.12" d="M246.822 45.8111C247.42 47.1211 248.201 49.3044 248.316 52.1082C248.431 55.2338 247.65 57.555 247.213 58.7961C245.03 65.0242 240.158 68.7933 238.066 70.2412C238.894 70.3331 239.997 70.3791 241.284 70.1952C242.984 69.9424 244.317 69.3449 245.168 68.8852C245.88 70.2871 246.593 71.689 247.305 73.068C247.282 73.7345 247.351 74.5618 247.558 75.4581C248.04 77.5495 249.098 78.9974 249.787 79.7788C249.718 78.5148 249.695 76.6992 250.017 74.5618C250.201 73.3667 250.844 69.5517 253.303 65.1851C255.119 61.9446 255.877 62.0365 257.187 59.0029C258.658 55.6015 258.589 53.4412 258.543 52.7977C258.497 51.8554 258.359 49.7411 257.118 48.0864C255.257 45.5124 251.12 44.662 246.822 45.8111Z" fill="#7A7A7A"/>
<path d="M231.815 51.4191C231.861 51.2123 232.527 48.6153 233.654 46.5928C235.768 42.8697 239.744 40.9392 241.054 40.3417C241.421 41.8815 242.456 45.2139 245.397 48.3165C248.477 51.557 251.924 52.7291 253.464 53.1428C253.74 52.9129 254.59 52.2465 255.578 52.4303C257.003 52.7061 257.624 54.5906 257.647 55.8317C257.647 56.2224 257.624 57.4404 256.682 58.4976C255.418 59.8995 253.648 59.7846 253.418 59.7616C252.269 61.0256 250.706 63.0251 249.465 65.783C248.086 68.8626 246.478 72.4708 247.856 76.4007C248.983 79.5723 251.993 82.7668 255.9 83.2724C261.577 84.0078 266.518 78.7449 267.667 74.1944C268.265 71.8273 267.414 71.2757 265.92 63.0711C264.794 56.8659 265.162 56.5441 264.105 51.6259C262.726 45.2139 261.991 41.9734 259.853 39.8591C256.934 37.0093 253.119 36.6645 249.121 36.3198C244.409 35.9061 238.25 35.3546 233.975 39.6293C231.493 42.1113 229.861 46.0183 230.183 49.9712C230.344 51.8098 230.873 53.2807 231.332 54.2459C231.378 53.5564 231.516 52.5682 231.815 51.4191Z" fill="#161616"/>
<path d="M233.884 66.3348C233.102 66.3578 231.838 70.2647 232.78 74.1947C233.171 75.7805 233.929 78.998 236.848 80.285C239.537 81.4571 243.444 80.7216 244.961 78.0097C245.972 76.1712 245.49 74.1947 245.329 73.5742C244.593 72.2642 243.835 70.9772 243.099 69.6672C242.594 69.8511 241.996 70.0579 241.307 70.1728C239.859 70.4486 238.595 70.3796 237.676 70.2418C237.17 69.989 236.458 69.5753 235.791 68.9088C234.389 67.5528 234.32 66.3118 233.884 66.3348Z" fill="#161616"/>
<path d="M235.377 43.3991C232.183 47.444 230.574 52.592 230.919 57.74C231.24 62.5432 233.24 68.0819 237.744 70.4261C238.135 70.633 238.48 70.0354 238.089 69.8286C233.7 67.5304 231.815 62.0606 231.585 57.3723C231.355 52.523 232.849 47.6738 235.883 43.8587C236.136 43.56 235.653 43.0544 235.377 43.3991Z" fill="#161616"/>
<path d="M238.089 70.5858C242.548 70.8386 246.891 69.069 249.948 65.8055C250.247 65.4838 249.764 65.0012 249.465 65.3229C246.547 68.4715 242.387 70.1492 238.112 69.8964C237.629 69.8734 237.652 70.5628 238.089 70.5858Z" fill="#161616"/>
<path d="M242.938 70.2185C243.674 71.7813 244.593 73.2291 245.696 74.5621C245.972 74.9068 246.455 74.4242 246.179 74.0795C245.099 72.7925 244.225 71.3906 243.536 69.8738C243.329 69.4601 242.754 69.8048 242.938 70.2185Z" fill="#161616"/>
<path d="M253.648 53.4658C254.315 52.9832 255.211 52.5925 256.038 52.8913C257.141 53.282 257.348 54.6149 257.325 55.6032C257.279 57.6716 255.808 59.8089 253.51 59.4642C253.074 59.3952 252.89 60.0617 253.326 60.1307C256.222 60.5673 258.107 57.9244 257.992 55.2355C257.946 54.1553 257.601 52.9143 256.567 52.3857C255.487 51.8111 254.2 52.2248 253.28 52.8913C252.936 53.1211 253.28 53.7186 253.648 53.4658Z" fill="#161616"/>
<path d="M236.227 48.7526C235.469 53.395 234.917 58.0604 234.527 62.7488C234.504 63.0935 235.009 63.2084 235.17 62.9326C235.952 61.5537 236.733 60.1518 237.514 58.7729C237.721 58.3822 237.147 58.0374 236.917 58.4281C236.135 59.8071 235.354 61.209 234.573 62.5879C234.779 62.6568 235.009 62.7028 235.216 62.7718C235.584 58.1523 236.135 53.5559 236.894 48.9595C236.963 48.4998 236.296 48.316 236.227 48.7526Z" fill="#161616"/>
<path d="M235.906 64.7269C238.296 65.807 240.663 64.589 241.95 62.4746C242.18 62.0839 241.582 61.7392 241.352 62.1299C240.295 63.8995 238.296 65.0716 236.25 64.1293C235.837 63.9455 235.492 64.543 235.906 64.7269Z" fill="#161616"/>
<path d="M241.008 61.9908C241.399 62.0598 241.743 62.2436 241.973 62.5883C242.226 62.9561 242.824 62.6113 242.571 62.2436C242.249 61.761 241.766 61.4163 241.192 61.3243C240.755 61.2554 240.571 61.9219 241.008 61.9908Z" fill="#161616"/>
<path d="M233.86 54.7515C234.051 54.7515 234.205 54.0621 234.205 53.2117C234.205 52.3613 234.051 51.6719 233.86 51.6719C233.67 51.6719 233.516 52.3613 233.516 53.2117C233.516 54.0621 233.67 54.7515 233.86 54.7515Z" fill="#161616"/>
<path d="M240.295 54.062C240.486 54.062 240.64 53.3726 240.64 52.5222C240.64 51.6718 240.486 50.9824 240.295 50.9824C240.105 50.9824 239.951 51.6718 239.951 52.5222C239.951 53.3726 240.105 54.062 240.295 54.062Z" fill="#161616"/>
<path d="M232.734 49.4887C233.033 48.8222 233.883 47.9489 234.596 48.7073C234.895 49.0291 235.377 48.5464 235.078 48.2247C234.067 47.1215 232.642 48.0638 232.137 49.144C231.953 49.5576 232.55 49.9024 232.734 49.4887Z" fill="#161616"/>
<path d="M239.261 48.1785C239.652 47.0064 241.008 47.3511 241.674 48.0176C241.973 48.3393 242.479 47.8567 242.157 47.535C241.1 46.4548 239.123 46.3169 238.595 47.9946C238.457 48.4313 239.123 48.6151 239.261 48.1785Z" fill="#161616"/>
<path d="M241.49 56.4517C241.927 56.4517 241.927 55.7622 241.49 55.7622C241.054 55.7622 241.054 56.4517 241.49 56.4517Z" fill="#161616"/>
<path d="M243.789 55.5796C244.225 55.5796 244.225 54.8901 243.789 54.8901C243.329 54.8901 243.329 55.5796 243.789 55.5796Z" fill="#161616"/>
<path d="M243.283 57.3027C243.72 57.3027 243.72 56.6133 243.283 56.6133C242.824 56.6133 242.824 57.3027 243.283 57.3027Z" fill="#161616"/>
</svg>
