<svg width="182" height="54" viewBox="0 0 182 54" fill="none" xmlns="http://www.w3.org/2000/svg">
<g clip-path="url(#clip0_293_613)">
<path d="M175.199 0H6.73842C3.01689 0 0 3.01689 0 6.73842V47.1689C0 50.8904 3.01689 53.9073 6.73842 53.9073H175.199C178.92 53.9073 181.937 50.8904 181.937 47.1689V6.73842C181.937 3.01689 178.92 0 175.199 0Z" fill="white"/>
<path d="M175.199 1.07815C176.7 1.07815 178.14 1.67449 179.201 2.736C180.263 3.79751 180.859 5.23722 180.859 6.73842V47.1689C180.859 48.6701 180.263 50.1098 179.201 51.1713C178.14 52.2328 176.7 52.8292 175.199 52.8292H6.73842C5.23722 52.8292 3.79751 52.2328 2.736 51.1713C1.67449 50.1098 1.07815 48.6701 1.07815 47.1689V6.73842C1.07815 5.23722 1.67449 3.79751 2.736 2.736C3.79751 1.67449 5.23722 1.07815 6.73842 1.07815H175.199ZM175.199 0H6.73842C4.95128 0 3.23734 0.709938 1.97364 1.97364C0.709938 3.23734 0 4.95128 0 6.73842V47.1689C0 48.9561 0.709938 50.67 1.97364 51.9337C3.23734 53.1974 4.95128 53.9073 6.73842 53.9073H175.199C176.986 53.9073 178.7 53.1974 179.964 51.9337C181.227 50.67 181.937 48.9561 181.937 47.1689V6.73842C181.937 4.95128 181.227 3.23734 179.964 1.97364C178.7 0.709938 176.986 0 175.199 0Z" fill="black"/>
<path d="M63.907 13.8006C63.9292 14.2948 63.851 14.7884 63.6773 15.2516C63.5036 15.7149 63.2379 16.1381 62.8963 16.4959C62.5134 16.8912 62.0514 17.2012 61.5405 17.4056C61.0296 17.6099 60.4812 17.7041 59.9314 17.6819C59.3784 17.6942 58.8287 17.593 58.3164 17.3843C57.8041 17.1757 57.3401 16.8642 56.953 16.469C56.1677 15.6657 55.728 14.587 55.728 13.4637C55.728 12.3403 56.1677 11.2616 56.953 10.4583C57.5534 9.87166 58.3138 9.47551 59.1386 9.31966C59.9635 9.1638 60.816 9.25519 61.589 9.58233C62.075 9.7821 62.5085 10.0911 62.8559 10.4853L62.1416 11.1996C61.874 10.8771 61.5348 10.6216 61.1512 10.4531C60.7675 10.2847 60.3499 10.208 59.9314 10.2292C59.4031 10.2329 58.8838 10.3659 58.4188 10.6166C57.9538 10.8673 57.5573 11.228 57.2639 11.6674C56.9705 12.1067 56.7892 12.6112 56.7359 13.1368C56.6825 13.6623 56.7587 14.193 56.9577 14.6823C57.1568 15.1717 57.4726 15.6048 57.8777 15.9439C58.2828 16.2829 58.7648 16.5176 59.2816 16.6274C59.7983 16.7372 60.3341 16.7187 60.842 16.5737C61.35 16.4286 61.8147 16.1613 62.1955 15.7952C62.6071 15.3438 62.8458 14.7614 62.8693 14.151H59.9314V13.1806H63.8531C63.8838 13.386 63.9018 13.593 63.907 13.8006Z" fill="black" stroke="black" stroke-width="0.254982" stroke-miterlimit="10"/>
<path d="M70.0796 10.4309H66.4408V12.9915H69.7561V13.9618H66.4408V16.5224H70.0796V17.5197H65.3896V9.43359H70.0796V10.4309Z" fill="black" stroke="black" stroke-width="0.254982" stroke-miterlimit="10"/>
<path d="M74.4999 17.5197H73.4622V10.4309H71.1981V9.43359H76.818V10.4309H74.4999V17.5197Z" fill="black" stroke="black" stroke-width="0.254982" stroke-miterlimit="10"/>
<path d="M80.7803 17.5197V9.43359H81.818V17.5197H80.7803Z" fill="black" stroke="black" stroke-width="0.254982" stroke-miterlimit="10"/>
<path d="M86.4268 17.5197H85.3891V10.4309H83.125V9.43359H88.6775V10.4309H86.4268V17.5197Z" fill="black" stroke="black" stroke-width="0.254982" stroke-miterlimit="10"/>
<path d="M99.2029 16.4688C98.8137 16.8583 98.3515 17.1674 97.8427 17.3782C97.334 17.5891 96.7887 17.6976 96.238 17.6976C95.6873 17.6976 95.142 17.5891 94.6333 17.3782C94.1246 17.1674 93.6624 16.8583 93.2731 16.4688C92.5112 15.6589 92.087 14.5888 92.087 13.4769C92.087 12.365 92.5112 11.295 93.2731 10.4851C93.654 10.0845 94.1147 9.76841 94.6254 9.55716C95.1361 9.3459 95.6855 9.24421 96.238 9.25868C96.7898 9.24995 97.3374 9.35425 97.8473 9.56517C98.3572 9.77608 98.8186 10.0891 99.2029 10.4851C99.5904 10.8793 99.895 11.3471 100.099 11.861C100.302 12.3748 100.401 12.9243 100.389 13.4769C100.407 14.0302 100.31 14.5813 100.106 15.0959C99.9024 15.6106 99.5949 16.0779 99.2029 16.4688ZM94.0413 15.7949C94.3284 16.0859 94.6704 16.3169 95.0475 16.4746C95.4246 16.6322 95.8293 16.7134 96.238 16.7134C96.6468 16.7134 97.0514 16.6322 97.4285 16.4746C97.8056 16.3169 98.1476 16.0859 98.4347 15.7949C99.0163 15.163 99.339 14.3357 99.339 13.4769C99.339 12.6182 99.0163 11.7908 98.4347 11.1589C98.1476 10.868 97.8056 10.637 97.4285 10.4793C97.0514 10.3216 96.6468 10.2404 96.238 10.2404C95.8293 10.2404 95.4246 10.3216 95.0475 10.4793C94.6704 10.637 94.3284 10.868 94.0413 11.1589C93.4598 11.7908 93.137 12.6182 93.137 13.4769C93.137 14.3357 93.4598 15.163 94.0413 15.7949Z" fill="black" stroke="black" stroke-width="0.254982" stroke-miterlimit="10"/>
<path d="M101.858 17.5197V9.43359H103.111L107.046 15.7273V14.164V9.43359H108.084V17.5197H107.006L102.896 10.9295V12.4794V17.5197H101.858Z" fill="black" stroke="black" stroke-width="0.254982" stroke-miterlimit="10"/>
<path d="M91.8311 29.312C90.6956 29.3147 89.5864 29.654 88.6438 30.2871C87.7011 30.9202 86.9674 31.8185 86.5353 32.8686C86.1033 33.9187 85.9923 35.0733 86.2164 36.1864C86.4406 37.2996 86.9897 38.3212 87.7945 39.1223C88.5993 39.9233 89.6236 40.4677 90.7378 40.6866C91.852 40.9055 93.006 40.7891 94.0541 40.3521C95.1021 39.9151 95.997 39.1772 96.6256 38.2316C97.2543 37.286 97.5884 36.1752 97.5857 35.0397C97.5967 34.2822 97.4552 33.5303 97.1695 32.8286C96.8839 32.127 96.4599 31.49 95.923 30.9556C95.3861 30.4211 94.7471 30.0002 94.0441 29.7179C93.3411 29.4355 92.5885 29.2975 91.8311 29.312V29.312ZM91.8311 38.5167C91.1351 38.5654 90.4406 38.4036 89.8378 38.0523C89.235 37.701 88.7519 37.1765 88.4511 36.547C88.1504 35.9175 88.046 35.212 88.1515 34.5224C88.257 33.8327 88.5675 33.1908 89.0427 32.68C89.5179 32.1691 90.1358 31.8131 90.816 31.6581C91.4962 31.503 92.2073 31.5563 92.8569 31.8108C93.5065 32.0653 94.0645 32.5093 94.4584 33.0852C94.8523 33.661 95.0638 34.342 95.0655 35.0397C95.0872 35.4818 95.0202 35.9237 94.8684 36.3394C94.7166 36.7552 94.4831 37.1363 94.1816 37.4604C93.8802 37.7844 93.5169 38.0449 93.1132 38.2263C92.7095 38.4077 92.2736 38.5065 91.8311 38.5167ZM79.2707 29.312C78.1352 29.3147 77.026 29.654 76.0834 30.2871C75.1407 30.9202 74.407 31.8185 73.9749 32.8686C73.5429 33.9187 73.4319 35.0733 73.656 36.1864C73.8801 37.2996 74.4293 38.3212 75.2341 39.1223C76.0389 39.9233 77.0632 40.4677 78.1774 40.6866C79.2915 40.9055 80.4456 40.7891 81.4937 40.3521C82.5417 39.9151 83.4366 39.1772 84.0652 38.2316C84.6939 37.286 85.028 36.1752 85.0253 35.0397C85.0363 34.2822 84.8947 33.5303 84.6091 32.8286C84.3234 32.127 83.8995 31.49 83.3626 30.9556C82.8257 30.4211 82.1867 30.0002 81.4837 29.7179C80.7807 29.4355 80.0281 29.2975 79.2707 29.312V29.312ZM79.2707 38.5167C78.5747 38.5654 77.8802 38.4036 77.2774 38.0523C76.6746 37.701 76.1915 37.1765 75.8907 36.547C75.59 35.9175 75.4856 35.212 75.5911 34.5224C75.6966 33.8327 76.0071 33.1908 76.4823 32.68C76.9575 32.1691 77.5753 31.8131 78.2556 31.6581C78.9358 31.503 79.6469 31.5563 80.2965 31.8108C80.9461 32.0653 81.5041 32.5093 81.898 33.0852C82.2919 33.661 82.5034 34.342 82.5051 35.0397C82.5268 35.4818 82.4598 35.9237 82.308 36.3394C82.1562 36.7552 81.9227 37.1363 81.6212 37.4604C81.3198 37.7844 80.9565 38.0449 80.5528 38.2263C80.1491 38.4077 79.7132 38.5065 79.2707 38.5167ZM64.3384 31.0775V33.5033H70.1603C70.0691 34.6459 69.5941 35.724 68.8127 36.5626C68.2287 37.1576 67.5262 37.6234 66.7509 37.9298C65.9755 38.2363 65.1444 38.3765 64.3114 38.3415C62.5957 38.3415 60.9504 37.66 59.7372 36.4468C58.5241 35.2337 57.8425 33.5883 57.8425 31.8726C57.8425 30.157 58.5241 28.5116 59.7372 27.2985C60.9504 26.0853 62.5957 25.4038 64.3114 25.4038C65.9562 25.3793 67.5444 26.0039 68.7318 27.1423L70.4434 25.4307C69.6401 24.6363 68.6864 24.0101 67.6381 23.5889C66.5898 23.1678 65.468 22.96 64.3384 22.9779C63.1403 22.9313 61.9451 23.127 60.8244 23.5534C59.7038 23.9797 58.6807 24.6279 57.8166 25.459C56.9524 26.2902 56.265 27.2873 55.7954 28.3905C55.3258 29.4937 55.0837 30.6804 55.0837 31.8794C55.0837 33.0784 55.3258 34.265 55.7954 35.3683C56.265 36.4715 56.9524 37.4686 57.8166 38.2997C58.6807 39.1309 59.7038 39.7791 60.8244 40.2054C61.9451 40.6317 63.1403 40.8275 64.3384 40.7808C65.4912 40.8269 66.6407 40.6285 67.7115 40.1988C68.7822 39.7692 69.75 39.1178 70.5512 38.2876C71.9664 36.7329 72.7205 34.6882 72.6536 32.5869C72.6584 32.0812 72.6178 31.576 72.5323 31.0775H64.3384ZM125.402 32.9643C125.05 31.9302 124.393 31.0274 123.517 30.3752C122.641 29.723 121.588 29.3522 120.496 29.312C119.759 29.3106 119.029 29.4604 118.352 29.7521C117.675 30.0438 117.065 30.4713 116.56 31.0081C116.055 31.545 115.665 32.1797 115.415 32.8731C115.165 33.5666 115.06 34.304 115.106 35.0397C115.094 36.2699 115.481 37.4709 116.208 38.4632C116.935 39.4555 117.964 40.1858 119.141 40.5452C120.318 40.9045 121.579 40.8736 122.736 40.457C123.894 40.0404 124.886 39.2605 125.564 38.2337L123.609 36.886C123.318 37.3716 122.905 37.7725 122.411 38.0491C121.917 38.3257 121.359 38.4683 120.793 38.4628C120.209 38.4869 119.631 38.3338 119.135 38.0235C118.64 37.7132 118.25 37.2603 118.017 36.7243L125.685 33.5572L125.402 32.9643ZM117.585 34.878C117.558 34.4594 117.614 34.0395 117.751 33.643C117.888 33.2465 118.103 32.8813 118.383 32.5688C118.663 32.2562 119.002 32.0027 119.381 31.823C119.76 31.6433 120.172 31.5411 120.591 31.5222C121.025 31.4957 121.457 31.598 121.834 31.8161C122.21 32.0343 122.514 32.3587 122.707 32.7486L117.585 34.878ZM111.359 40.4304H113.879V23.5844H111.359V40.4304ZM107.235 30.5923H107.141C106.764 30.1636 106.3 29.8212 105.779 29.5886C105.258 29.356 104.693 29.2387 104.122 29.2447C102.649 29.3161 101.26 29.9514 100.243 31.019C99.2262 32.0866 98.6589 33.5046 98.6589 34.9791C98.6589 36.4536 99.2262 37.8715 100.243 38.9391C101.26 40.0067 102.649 40.642 104.122 40.7134C104.693 40.7249 105.26 40.6101 105.782 40.3771C106.304 40.1441 106.768 39.7988 107.141 39.3658H107.235V40.1878C107.235 42.3846 106.063 43.5571 104.176 43.5571C103.546 43.5432 102.934 43.3424 102.418 42.98C101.902 42.6177 101.505 42.1102 101.278 41.5221L99.0951 42.425C99.4988 43.4388 100.201 44.3062 101.108 44.9126C102.015 45.519 103.085 45.8358 104.176 45.8212C107.127 45.8212 109.567 44.0827 109.567 39.8509V29.649H107.235V30.5923ZM104.338 38.5167C103.455 38.4617 102.626 38.0721 102.02 37.4273C101.414 36.7826 101.077 35.9311 101.077 35.0464C101.077 34.1617 101.414 33.3103 102.02 32.6655C102.626 32.0208 103.455 31.6312 104.338 31.5762C104.769 31.5948 105.193 31.7 105.583 31.8856C105.973 32.0712 106.321 32.3334 106.608 32.6566C106.895 32.9797 107.114 33.3572 107.251 33.7666C107.389 34.176 107.443 34.609 107.41 35.0397C107.447 35.4719 107.396 35.907 107.26 36.3189C107.123 36.7307 106.905 37.1106 106.618 37.4356C106.331 37.7606 105.98 38.024 105.589 38.2098C105.197 38.3957 104.771 38.5001 104.338 38.5167V38.5167ZM137.208 23.5844H131.17V40.4304H133.69V34.0424H137.208C137.926 34.094 138.647 33.9971 139.326 33.7577C140.005 33.5183 140.628 33.1415 141.155 32.6509C141.682 32.1603 142.102 31.5664 142.39 30.9061C142.677 30.2459 142.826 29.5335 142.826 28.8134C142.826 28.0933 142.677 27.3809 142.39 26.7207C142.102 26.0604 141.682 25.4665 141.155 24.9759C140.628 24.4853 140.005 24.1085 139.326 23.8691C138.647 23.6297 137.926 23.5328 137.208 23.5844V23.5844ZM137.208 31.6705H133.69V25.9294H137.262C137.64 25.9294 138.015 26.004 138.365 26.1489C138.715 26.2938 139.033 26.5063 139.301 26.7741C139.569 27.0419 139.781 27.3598 139.926 27.7097C140.071 28.0596 140.146 28.4347 140.146 28.8134C140.146 29.1921 140.071 29.5672 139.926 29.9171C139.781 30.267 139.569 30.5849 139.301 30.8527C139.033 31.1205 138.715 31.333 138.365 31.4779C138.015 31.6228 137.64 31.6974 137.262 31.6974L137.208 31.6705ZM152.76 29.2581C151.842 29.2015 150.928 29.4152 150.13 29.8727C149.333 30.3302 148.687 31.0114 148.272 31.8322L150.496 32.7621C150.72 32.357 151.058 32.0256 151.467 31.808C151.876 31.5904 152.339 31.4958 152.8 31.5357C153.12 31.4984 153.444 31.5251 153.754 31.6143C154.063 31.7036 154.352 31.8536 154.603 32.0555C154.854 32.2575 155.062 32.5074 155.215 32.7907C155.369 33.074 155.464 33.385 155.496 33.7055V33.8672C154.685 33.4412 153.783 33.2192 152.868 33.2203C150.469 33.2203 148.016 34.568 148.016 37.0208C148.04 37.5421 148.168 38.0534 148.393 38.5242C148.618 38.995 148.936 39.4158 149.327 39.7615C149.718 40.1072 150.174 40.3708 150.669 40.5366C151.164 40.7025 151.687 40.7672 152.207 40.7269C152.84 40.7619 153.47 40.6281 154.034 40.3391C154.597 40.0502 155.074 39.6166 155.415 39.0827H155.496V40.4304H157.921V33.9481C157.921 30.9966 155.684 29.2851 152.814 29.2851L152.76 29.2581ZM152.45 38.4898C151.628 38.4898 150.482 38.072 150.482 37.0612C150.482 35.7135 151.911 35.2553 153.178 35.2553C153.978 35.2356 154.769 35.4311 155.469 35.8214C155.384 36.5532 155.037 37.2296 154.492 37.7252C153.947 38.2208 153.24 38.502 152.504 38.5167L152.45 38.4898ZM166.762 29.649L163.878 36.9534H163.797L160.806 29.649H158.11L162.598 39.8644L160.037 45.5382H162.665L169.565 29.649H166.762ZM144.121 40.4304H146.628V23.5844H144.121V40.4304Z" fill="black"/>
<path d="M14.0698 10.1617C13.6256 10.6868 13.399 11.3618 13.4363 12.0485V41.8592C13.3905 42.5471 13.6181 43.2252 14.0698 43.746L14.1641 43.8538L30.8619 27.156V26.7517L14.1641 10.0674L14.0698 10.1617Z" fill="url(#paint0_linear_293_613)"/>
<path d="M36.3874 32.7217L30.8619 27.1558V26.7515L36.3874 21.1855L36.5087 21.2664L43.1259 25.013C45.0126 26.0776 45.0126 27.8296 43.1259 28.9078L36.5357 32.6543L36.3874 32.7217Z" fill="url(#paint1_linear_293_613)"/>
<path d="M36.5491 32.6408L30.8618 26.9536L14.0697 43.7457C14.4505 44.0847 14.938 44.2797 15.4475 44.297C15.9571 44.3142 16.4566 44.1526 16.8594 43.8401L36.5491 32.6408" fill="url(#paint2_linear_293_613)"/>
<path d="M36.5491 21.2666L16.8594 10.0808C16.4592 9.764 15.9601 9.59843 15.4498 9.61322C14.9396 9.62801 14.4509 9.82221 14.0697 10.1617L30.8618 26.9538L36.5491 21.2666Z" fill="url(#paint3_linear_293_613)"/>
<path opacity="0.2" d="M36.3873 32.5195L16.8594 43.6379C16.4712 43.9309 15.9981 44.0894 15.5117 44.0894C15.0254 44.0894 14.5522 43.9309 14.164 43.6379V43.6379L14.0697 43.7323L14.164 43.8401C14.5522 44.1331 15.0254 44.2916 15.5117 44.2916C15.9981 44.2916 16.4712 44.1331 16.8594 43.8401L36.5491 32.6408L36.3873 32.5195Z" fill="black"/>
<path opacity="0.12" d="M14.07 43.557C13.6371 43.0224 13.4249 42.3426 13.477 41.6567V41.8589C13.4311 42.5467 13.6588 43.2248 14.1104 43.7456L14.2047 43.6513L14.07 43.557Z" fill="black"/>
<path opacity="0.12" d="M43.1259 28.7056L36.3875 32.5195L36.5087 32.6408L43.1259 28.8943C43.5165 28.7291 43.8553 28.4617 44.1067 28.1202C44.3581 27.7786 44.5128 27.3756 44.5544 26.9536C44.4702 27.3371 44.297 27.6955 44.0488 27.9998C43.8007 28.3041 43.4846 28.5459 43.1259 28.7056Z" fill="black"/>
<path opacity="0.25" d="M16.8595 10.2694L43.1259 25.2017C43.4846 25.3615 43.8007 25.6032 44.0489 25.9076C44.297 26.2119 44.4702 26.5702 44.5544 26.9537C44.5128 26.5317 44.3581 26.1287 44.1067 25.7872C43.8553 25.4456 43.5165 25.1782 43.1259 25.0131L16.8595 10.0807C14.9862 9.00258 13.4364 9.89205 13.4364 12.0483V12.2505C13.4768 10.0942 14.9862 9.20473 16.8595 10.2694Z" fill="white"/>
</g>
<defs>
<linearGradient id="paint0_linear_293_613" x1="29.3794" y1="11.7385" x2="6.76531" y2="34.3526" gradientUnits="userSpaceOnUse">
<stop stop-color="#00A0FF"/>
<stop offset="0.01" stop-color="#00A1FF"/>
<stop offset="0.26" stop-color="#00BEFF"/>
<stop offset="0.51" stop-color="#00D2FF"/>
<stop offset="0.76" stop-color="#00DFFF"/>
<stop offset="1" stop-color="#00E3FF"/>
</linearGradient>
<linearGradient id="paint1_linear_293_613" x1="45.5921" y1="26.9536" x2="12.9917" y2="26.9536" gradientUnits="userSpaceOnUse">
<stop stop-color="#FFE000"/>
<stop offset="0.41" stop-color="#FFBD00"/>
<stop offset="0.78" stop-color="#FFA500"/>
<stop offset="1" stop-color="#FF9C00"/>
</linearGradient>
<linearGradient id="paint2_linear_293_613" x1="33.4629" y1="30.0533" x2="2.78958" y2="60.7131" gradientUnits="userSpaceOnUse">
<stop stop-color="#FF3A44"/>
<stop offset="1" stop-color="#C31162"/>
</linearGradient>
<linearGradient id="paint3_linear_293_613" x1="9.83798" y1="0.242732" x2="23.5304" y2="13.9352" gradientUnits="userSpaceOnUse">
<stop stop-color="#32A071"/>
<stop offset="0.07" stop-color="#2DA771"/>
<stop offset="0.48" stop-color="#15CF74"/>
<stop offset="0.8" stop-color="#06E775"/>
<stop offset="1" stop-color="#00F076"/>
</linearGradient>
<clipPath id="clip0_293_613">
<rect width="181.937" height="53.9073" fill="white"/>
</clipPath>
</defs>
</svg>
