<svg width="38" height="47" viewBox="0 0 38 47" fill="none" xmlns="http://www.w3.org/2000/svg">
<path fill-rule="evenodd" clip-rule="evenodd" d="M6.65002 12.4971V19.2261H3.80008C1.70059 19.2261 0 20.9469 0 23.0714V42.2978C0 44.4222 1.70059 46.1428 3.80008 46.1428H34.1997C36.2991 46.1428 38 44.4222 38 42.2978V23.0714C38 20.9469 36.2991 19.2261 34.1997 19.2261H31.35V12.4971C31.35 5.59501 25.8206 0 19 0C12.1794 0 6.65002 5.5949 6.65002 12.4971ZM11.4 19.2261V12.4971C11.4 8.24813 14.8009 4.80642 18.9999 4.80642C23.1989 4.80642 26.6 8.24813 26.6 12.4971V19.2261H11.4ZM15.1999 29.8006C15.1999 27.6762 16.9004 25.9555 18.9999 25.9555C21.0994 25.9555 22.7998 27.6762 22.7998 29.8006C22.7998 31.1562 22.1061 32.3484 21.0614 33.0308C21.0614 33.0308 21.4326 35.3 21.85 37.9719C21.85 38.7695 21.2136 39.4136 20.425 39.4136H17.5748C16.7863 39.4136 16.15 38.7695 16.15 37.9719L16.9386 33.0308C15.8938 32.3484 15.1999 31.1561 15.1999 29.8006Z" fill="#FF753A"/>
</svg>
