<svg width="47" height="47" viewBox="0 0 47 47" fill="none" xmlns="http://www.w3.org/2000/svg">
<path d="M5.87496 5.875H41.125C41.6443 5.875 42.1425 6.08132 42.5097 6.44858C42.877 6.81584 43.0833 7.31395 43.0833 7.83333V39.1667C43.0833 39.6861 42.877 40.1842 42.5097 40.5514C42.1425 40.9187 41.6443 41.125 41.125 41.125H5.87496C5.35558 41.125 4.85747 40.9187 4.49021 40.5514C4.12295 40.1842 3.91663 39.6861 3.91663 39.1667V7.83333C3.91663 7.31395 4.12295 6.81584 4.49021 6.44858C4.85747 6.08132 5.35558 5.875 5.87496 5.875ZM23.5 17.625H15.6666V21.5417H33.2916L23.5 11.75V17.625ZM13.7083 25.4583L23.5 35.25V29.375H31.3333V25.4583H13.7083Z" fill="#FF753A"/>
</svg>
